<?xml version="1.0" encoding="UTF-8"?>
<svg version="1.1" xmlns="http://www.w3.org/2000/svg" width="300" height="249">
<path d="M0 0 C22.12273175 -0.66785605 43.07351301 6.83891691 59.9453125 21.125 C60.59757813 21.63289063 61.24984375 22.14078125 61.921875 22.6640625 C78.41679016 36.00457157 87.37900336 56.56388335 90.6953125 77.125 C90.8098088 78.45601947 90.88800851 79.79029461 90.9453125 81.125 C90.996875 82.18589844 91.0484375 83.24679688 91.1015625 84.33984375 C91.72663718 109.16051762 83.486195 132.44832777 66.37158203 150.66748047 C49.93219426 167.46706023 27.01966499 176.98794835 3.60888672 177.3737793 C-4.95872696 177.37907187 -4.95872696 177.37907187 -9.0546875 176.125 C-8.40956548 171.42793178 -7.16417919 167.09007805 -5.6171875 162.625 C-5.29137695 161.66787109 -5.29137695 161.66787109 -4.95898438 160.69140625 C-4.32690247 158.83502155 -3.69085361 156.97998904 -3.0546875 155.125 C-2.38599483 153.12567647 -1.71857446 151.12592442 -1.0546875 149.125 C0.23501953 149.08632813 0.23501953 149.08632813 1.55078125 149.046875 C19.01820869 148.20874326 34.38669847 142.51861034 46.9453125 130.125 C57.98499288 116.91161511 63.52448191 101.53618513 62.8828125 84.25 C61.68389046 71.86113895 57.26707287 61.14965322 49.9453125 51.125 C48.8315625 49.5471875 48.8315625 49.5471875 47.6953125 47.9375 C40.97960125 41.06915895 32.80392223 35.79638614 23.9453125 32.125 C23.17574219 31.8053125 22.40617187 31.485625 21.61328125 31.15625 C6.87522075 26.14298848 -10.02456995 28.20110763 -23.93359375 34.41015625 C-38.22575298 41.54629695 -48.16548899 53.40200373 -54.046875 68.10546875 C-59.30336039 83.85455096 -58.54953281 100.03942731 -51.6640625 115.18359375 C-49.41795415 119.53986179 -47.23747027 123.06431916 -43.6796875 126.4375 C-39.94780124 130.55239563 -40.35847754 135.08546726 -40.5859375 140.40234375 C-41.46203202 147.35999437 -43.13783335 154.24971878 -47.0546875 160.125 C-52.3056516 159.207243 -55.28126398 155.6569796 -59.0546875 152.125 C-59.70824219 151.5475 -60.36179687 150.97 -61.03515625 150.375 C-70.39415318 141.70718648 -76.98762295 130.13181187 -81.0546875 118.125 C-81.4465625 117.01769531 -81.8384375 115.91039062 -82.2421875 114.76953125 C-87.59473696 97.13213735 -87.21937393 76.49088139 -81.0546875 59.125 C-80.49394531 57.52011719 -80.49394531 57.52011719 -79.921875 55.8828125 C-75.45627026 44.26041077 -68.59656876 35.06704146 -60.0546875 26.125 C-59.51457031 25.51011719 -58.97445312 24.89523438 -58.41796875 24.26171875 C-43.73767224 8.17625531 -21.07225839 1.28196249 0 0 Z " fill="#CC982D" transform="translate(181.0546875,25.875)"/>
<path d="M0 0 C8.45671271 1.21072243 14.87833414 9.69601325 19.80078125 15.984375 C26.44382661 25.0934887 31.53647724 34.25520779 35 45 C35.3196875 45.92167969 35.639375 46.84335938 35.96875 47.79296875 C42.54928311 70.36785317 38.23685047 95.70004171 27.15478516 116.02929688 C23.97269663 121.45970249 20.1231215 126.26197028 16 131 C15.29230469 131.81984375 14.58460938 132.6396875 13.85546875 133.484375 C0.80847328 147.52381354 -19.75045258 158.01017292 -38.90576172 159.17700195 C-52.82148055 159.45900142 -65.7660035 159.69791523 -79 155 C-80.06992188 154.62617188 -81.13984375 154.25234375 -82.2421875 153.8671875 C-96.08902823 148.54690009 -108.79090063 139.64013679 -118 128 C-118.97259766 126.79923828 -118.97259766 126.79923828 -119.96484375 125.57421875 C-127.81808539 115.39967343 -136.14176223 101.15823477 -136 88 C-132.62772763 87.15535944 -129.25180079 86.32633353 -125.875 85.5 C-124.44800781 85.14228516 -124.44800781 85.14228516 -122.9921875 84.77734375 C-118.23935199 83.62214067 -113.93266691 82.66783388 -109 83 C-108.72027344 83.95519531 -108.44054687 84.91039062 -108.15234375 85.89453125 C-102.88414717 103.14770714 -93.69303388 116.03359071 -77.640625 124.84375 C-63.78229794 131.48013197 -48.04228044 133.71172775 -33.0625 129.375 C-31.02423616 128.62935665 -29.00201596 127.83811429 -27 127 C-25.99710937 126.59910156 -24.99421875 126.19820313 -23.9609375 125.78515625 C-9.55426491 119.36357738 0.07939216 108.23275784 6.33984375 93.94140625 C12.43007493 77.9680953 11.60426159 60.51672257 4.64453125 44.97265625 C2.25929571 40.31089564 -0.12857404 36.7763884 -3.9375 33.1875 C-7.19133807 29.64507319 -7.44618961 27.14187718 -7.25 22.375 C-6.45715852 16.05277266 -4.70907499 4.70907499 0 0 Z " fill="#D09B2A" transform="translate(136,88)"/>
<path d="M0 0 C0.84732193 0.00359528 1.69464386 0.00719055 2.56764221 0.01089478 C3.89922363 0.01067574 3.89922363 0.01067574 5.25770569 0.01045227 C8.20666404 0.01115174 11.15556006 0.01894568 14.10450745 0.02676392 C16.14332037 0.02862798 18.18213374 0.03005194 20.22094727 0.03105164 C25.59844693 0.03487776 30.97591978 0.04470884 36.35340881 0.05575562 C41.83619321 0.06596771 47.31898192 0.07054882 52.80177307 0.07559204 C63.56806093 0.08633103 74.33432883 0.10340858 85.1006012 0.12442017 C85.1006012 0.78442017 85.1006012 1.44442017 85.1006012 2.12442017 C84.20599182 2.60910767 83.31138245 3.09379517 82.3896637 3.59317017 C69.60313945 10.42072961 69.60313945 10.42072961 59.41456604 20.45254517 C56.78303486 23.92010957 54.31879625 26.59481324 49.94902039 27.63812256 C43.66779051 28.43572016 37.356267 28.28324515 31.0381012 28.18692017 C29.1038456 28.18999838 27.16959196 28.19712197 25.23536682 28.20840454 C20.5207493 28.23467545 15.8176456 28.17765994 11.1006012 28.12442017 C8.1306012 34.39442017 5.1606012 40.66442017 2.1006012 47.12442017 C4.3487262 46.62942017 6.5968512 46.13442017 8.9131012 45.62442017 C17.23189799 43.94712287 31.29236147 41.2203003 39.1006012 45.12442017 C38.55700198 50.15271294 36.92053277 54.52549639 35.1552887 59.22207642 C33.61257424 63.46739806 32.34357477 67.78342912 31.1006012 72.12442017 C30.16860901 72.15020142 29.23661682 72.17598267 28.27638245 72.20254517 C18.97208783 72.61648749 8.88316407 73.16367053 0.95484924 78.59414673 C-8.17391348 84.58957843 -17.08357582 83.81038346 -27.5868988 83.49942017 C-29.36745239 83.46926602 -31.14805547 83.44189989 -32.92869568 83.41738892 C-37.25350463 83.3518619 -41.57589421 83.24864965 -45.8993988 83.12442017 C-45.22451897 79.96092092 -44.12125726 77.27788586 -42.7118988 74.37051392 C-42.26499695 73.44311401 -41.81809509 72.51571411 -41.35765076 71.56021118 C-40.87642761 70.57077515 -40.39520447 69.58133911 -39.8993988 68.56192017 C-38.89251075 66.47616493 -37.88600579 64.39022471 -36.87986755 62.30410767 C-36.1245575 60.74128052 -36.1245575 60.74128052 -35.35398865 59.1468811 C-33.65556128 55.61775541 -31.98287167 52.07706057 -30.31565857 48.53311157 C-26.33401887 40.06959521 -22.22395995 31.68076243 -18.0087738 23.33145142 C-16.73513778 20.79763327 -15.47302585 18.25823679 -14.2118988 15.71817017 C-13.75549011 14.8002771 -13.29908142 13.88238403 -12.82884216 12.93667603 C-11.92985739 11.12826997 -11.03219537 9.31920564 -10.13597107 7.50942993 C-9.72919128 6.69272827 -9.3224115 5.87602661 -8.90330505 5.03457642 C-8.54051453 4.30375854 -8.177724 3.57294067 -7.80393982 2.81997681 C-5.91149046 -0.72740802 -3.81362323 0.00683445 0 0 Z " fill="#DBA634" transform="translate(58.89939880371094,26.875579833984375)"/>
<path d="M0 0 C1.31291016 1.15435547 1.31291016 1.15435547 2.65234375 2.33203125 C7.46799415 6.80635666 7.46799415 6.80635666 9 9 C8.9614076 13.57705887 6.36522152 17.37979652 4.125 21.25 C3.77308594 21.88679688 3.42117187 22.52359375 3.05859375 23.1796875 C0.37039877 27.87653374 0.37039877 27.87653374 -3 29 C-3.67482422 27.96552734 -3.67482422 27.96552734 -4.36328125 26.91015625 C-12.67744714 14.76380969 -22.74705858 7.82686074 -36 2 C-36.77988281 1.649375 -37.55976563 1.29875 -38.36328125 0.9375 C-52.76685939 -4.70457957 -70.00453595 -2.27992133 -83.91015625 3.53515625 C-98.57354607 10.48682652 -110.52637058 21.40757064 -116.43359375 36.71484375 C-122.56549283 54.03394803 -123.25547824 72.1757387 -115.5859375 89.125 C-114.71516764 90.79843482 -113.81033623 92.45511627 -112.85546875 94.08203125 C-112 96 -112 96 -113 99 C-119.69675136 100.03026944 -126.2314676 100.10152799 -133 100 C-135.92675665 94.44925463 -138.28196844 89.03852513 -140 83 C-140.20753906 82.27554688 -140.41507812 81.55109375 -140.62890625 80.8046875 C-145.84041969 59.30263904 -139.92573843 35.33771774 -128.72265625 16.6875 C-120.89572453 5.45201564 -109.35471917 -5.98378893 -97 -12 C-95.90429688 -12.53625 -94.80859375 -13.0725 -93.6796875 -13.625 C-62.38888447 -27.9293671 -25.79592232 -22.99109387 0 0 Z " fill="#DAB458" transform="translate(241,52)"/>
<path d="M0 0 C0.99 0.99 0.99 0.99 2 2 C0.14714226 3.85285774 -2.96224179 3.41946399 -5.48046875 3.62109375 C-8.48310954 4.07265368 -11.1316272 5.00384097 -14 6 C-15.85184035 6.53222968 -17.7036863 7.06444006 -19.55566406 7.59619141 C-33.94547255 11.83610821 -44.42547636 18.57420384 -55 29 C-55.80308594 29.70769531 -56.60617188 30.41539063 -57.43359375 31.14453125 C-72.14621697 44.48023652 -79.01583094 65.64696265 -80.25390625 84.9609375 C-80.77525431 98.80137324 -77.70632825 111.3732311 -72 124 C-65.2314676 124.10152799 -58.69675136 124.03026944 -52 123 C-52.9895996 120.48793947 -54.00045853 117.99897763 -55.10546875 115.53515625 C-57.24018281 110.65691077 -58.68091605 107.32290084 -57 102 C-56.34 102 -55.68 102 -55 102 C-54.72027344 102.81082031 -54.44054687 103.62164062 -54.15234375 104.45703125 C-49.63464175 117.10124885 -49.63464175 117.10124885 -41.31640625 127.40625 C-38.08356509 131.3201942 -39.5544384 138.26171592 -40 143 C-41.28359831 148.7189427 -42.73276705 154.09915057 -46 159 C-51.2509641 158.082243 -54.22657648 154.5319796 -58 151 C-58.65355469 150.4225 -59.30710937 149.845 -59.98046875 149.25 C-69.33946568 140.58218648 -75.93293545 129.00681187 -80 117 C-80.391875 115.89269531 -80.78375 114.78539062 -81.1875 113.64453125 C-86.54004946 96.00713735 -86.16468643 75.36588139 -80 58 C-79.43925781 56.39511719 -79.43925781 56.39511719 -78.8671875 54.7578125 C-74.40158276 43.13541077 -67.54188126 33.94204146 -59 25 C-58.45988281 24.38511719 -57.91976562 23.77023438 -57.36328125 23.13671875 C-44.18071008 8.69233976 -19.61813929 -2.7515423 0 0 Z " fill="#C58B2F" transform="translate(180,27)"/>
<path d="M0 0 C11.12431896 3.70810632 18.73590662 16.03117106 24 26 C30 38.52187029 30 38.52187029 30 45 C27.58570231 45.84080019 25.16896007 46.67281402 22.75 47.5 C22.06808594 47.73847656 21.38617188 47.97695312 20.68359375 48.22265625 C17.23586997 49.39421287 14.68297096 50 11 50 C10.67128906 48.89205078 10.67128906 48.89205078 10.3359375 47.76171875 C7.64867642 39.16466805 4.50388011 30.45265541 -1.875 23.875 C-4.86734592 19.826532 -4.71756563 16.87189298 -4 12 C-1.76588629 1.76588629 -1.76588629 1.76588629 0 0 Z " fill="#F4E485" transform="translate(138,95)"/>
<path d="M0 0 C30.03 0 60.06 0 91 0 C91 0.66 91 1.32 91 2 C89.65808594 2.72703125 89.65808594 2.72703125 88.2890625 3.46875 C75.50253825 10.29630944 75.50253825 10.29630944 65.31396484 20.328125 C62.68243366 23.7956894 60.21819506 26.47039307 55.84841919 27.51370239 C49.56718931 28.3113 43.2556658 28.15882499 36.9375 28.0625 C35.0032444 28.06557822 33.06899077 28.0727018 31.13476562 28.08398438 C26.42190839 28.1027268 21.7123953 28.06640757 17 28 C15.68 30.64 14.36 33.28 13 36 C11.73958325 33.4791665 12.33774109 32.64903564 13 30 C12.67 29.34 12.34 28.68 12 28 C12.8581543 25.40380859 12.8581543 25.40380859 15 23 C18.08282009 22.28799286 21.12088981 22.44688091 24.26953125 22.5390625 C26.14648372 22.54210341 28.02343696 22.54469339 29.90039062 22.546875 C32.85652514 22.58025269 35.8120236 22.62499103 38.76782227 22.68066406 C41.62319646 22.72552162 44.47635961 22.72791161 47.33203125 22.7265625 C48.2103511 22.75650299 49.08867096 22.78644348 49.99360657 22.81729126 C54.79469761 22.81025434 54.79469761 22.81025434 58.84162903 20.47584534 C60.3474644 18.71285133 61.66373999 16.89222306 63 15 C64.63971786 13.50822661 66.32372578 12.06253698 68.0625 10.6875 C69.28646484 9.70330078 69.28646484 9.70330078 70.53515625 8.69921875 C72.96332518 7.02528296 75.22612901 5.97406878 78 5 C78 4.34 78 3.68 78 3 C53.25 3.33 28.5 3.66 3 4 C-2.36206449 14.67834178 -2.36206449 14.67834178 -7.57421875 25.4296875 C-7.93193359 26.18121094 -8.28964844 26.93273437 -8.65820312 27.70703125 C-9.36776633 29.20155717 -10.0649781 30.70198873 -10.75195312 32.20703125 C-13.38513621 37.66525046 -13.38513621 37.66525046 -16.76953125 39.5078125 C-17.87361328 39.75144531 -17.87361328 39.75144531 -19 40 C-18.2919115 36.57748823 -16.99876161 33.67256606 -15.48828125 30.52734375 C-14.97716797 29.46193359 -14.46605469 28.39652344 -13.93945312 27.29882812 C-13.40255859 26.18958984 -12.86566406 25.08035156 -12.3125 23.9375 C-11.79494141 22.85533203 -11.27738281 21.77316406 -10.74414062 20.65820312 C-7.35822137 13.62915281 -3.74902657 6.87321538 0 0 Z " fill="#A77730" transform="translate(53,27)"/>
<path d="M0 0 C4.29 0 8.58 0 13 0 C13 0.99 13 1.98 13 3 C10.03 3 7.06 3 4 3 C4 3.99 4 4.98 4 6 C6.97 6 9.94 6 13 6 C13 7.32 13 8.64 13 10 C10.03 10 7.06 10 4 10 C4 11.32 4 12.64 4 14 C7.63 14 11.26 14 15 14 C15.45375 12.4325 15.9075 10.865 16.375 9.25 C17.32417377 5.97103608 18.38274466 3.00950123 20 0 C22.32421875 0.08984375 22.32421875 0.08984375 25 1 C27.24008708 5.16490265 28.47227526 9.50412432 30 14 C30.33 9.38 30.66 4.76 31 0 C32.93875 -0.020625 34.8775 -0.04125 36.875 -0.0625 C38.51082031 -0.07990234 38.51082031 -0.07990234 40.1796875 -0.09765625 C43 0 43 0 45 1 C46.03794907 4.11384722 46.21151057 5.51822593 44.875 8.5625 C44.441875 9.7690625 44.441875 9.7690625 44 11 C45.30344828 13.21036291 45.30344828 13.21036291 47 15 C47 15.66 47 16.32 47 17 C44.75 17.375 44.75 17.375 42 17 C39.875 14.0625 39.875 14.0625 38 11 C37.01 10.67 36.02 10.34 35 10 C35 12.31 35 14.62 35 17 C32.03 17 29.06 17 26 17 C25.67 15.35 25.34 13.7 25 12 C22.55519921 12.18828772 22.55519921 12.18828772 20 13 C19.34 14.32 18.68 15.64 18 17 C12.06 17 6.12 17 0 17 C0 11.39 0 5.78 0 0 Z M35 3 C35 4.32 35 5.64 35 7 C36.65 7 38.3 7 40 7 C40 5.68 40 4.36 40 3 C38.35 3 36.7 3 35 3 Z M21 7 C21 7.66 21 8.32 21 9 C21.66 9 22.32 9 23 9 C23 8.34 23 7.68 23 7 C22.34 7 21.68 7 21 7 Z " fill="#B88D3C" transform="translate(188,106)"/>
<path d="M0 0 C0.99 0.99 0.99 0.99 2 2 C0.14714226 3.85285774 -2.96224179 3.41946399 -5.48046875 3.62109375 C-8.48310954 4.07265368 -11.1316272 5.00384097 -14 6 C-15.85184035 6.53222968 -17.7036863 7.06444006 -19.55566406 7.59619141 C-33.92483595 11.8300277 -44.46246276 18.55076614 -55 29 C-55.86109375 29.81210937 -56.7221875 30.62421875 -57.609375 31.4609375 C-62.0059517 35.67073153 -65.31962163 39.52270506 -68 45 C-69.32 45 -70.64 45 -72 45 C-70.83179015 34.05987261 -60.05586074 24.84203334 -52 18 C-37.86963345 7.07398009 -18.27938487 -2.56377529 0 0 Z " fill="#A27230" transform="translate(180,27)"/>
<path d="M0 0 C4.14294818 1.78329848 6.41020066 5.05184713 8.38671875 9.02734375 C7.85301222 11.81447787 7.3662391 13.0478234 5.38671875 15.02734375 C3.7205476 15.06798207 2.0528378 15.07006475 0.38671875 15.02734375 C-0.27328125 17.99734375 -0.93328125 20.96734375 -1.61328125 24.02734375 C-2.93328125 23.36734375 -4.25328125 22.70734375 -5.61328125 22.02734375 C-5.28328125 18.72734375 -4.95328125 15.42734375 -4.61328125 12.02734375 C-7.61587642 11.69516183 -7.61587642 11.69516183 -9.30078125 13.52734375 C-9.73390625 14.02234375 -10.16703125 14.51734375 -10.61328125 15.02734375 C-11.60328125 14.69734375 -12.59328125 14.36734375 -13.61328125 14.02734375 C-13.10008602 9.81322139 -10.75701038 7.67278284 -7.86328125 4.71484375 C-7.0021875 3.81121094 -6.14109375 2.90757813 -5.25390625 1.9765625 C-2.61328125 0.02734375 -2.61328125 0.02734375 0 0 Z M-1.61328125 5.02734375 C-1.61328125 6.34734375 -1.61328125 7.66734375 -1.61328125 9.02734375 C0.30694578 10.80144183 0.30694578 10.80144183 2.38671875 12.02734375 C3.15914144 10.19033586 3.15914144 10.19033586 3.38671875 8.02734375 C2.15717859 6.21434883 2.15717859 6.21434883 0.38671875 5.02734375 C-0.27328125 5.02734375 -0.93328125 5.02734375 -1.61328125 5.02734375 Z " fill="#B78B38" transform="translate(261.61328125,31.97265625)"/>
<path d="M0 0 C1.32 0 2.64 0 4 0 C5.32 2.97 6.64 5.94 8 9 C10 5.23570226 10 5.23570226 11 2 C12.32 2 13.64 2 15 2 C14.69035138 4.41706304 14.37738885 6.83361887 14.0625 9.25 C13.97548828 9.93191406 13.88847656 10.61382812 13.79882812 11.31640625 C13.3684062 14.60036611 12.91205869 17.81190294 12 21 C9.64453125 20.81640625 9.64453125 20.81640625 7 20 C5.63671875 17.71484375 5.63671875 17.71484375 4.6875 14.9375 C4.36136719 14.01839844 4.03523437 13.09929688 3.69921875 12.15234375 C3.35310547 11.08693359 3.35310547 11.08693359 3 10 C2.34 12.97 1.68 15.94 1 19 C-0.32 19 -1.64 19 -3 19 C-3.45510807 12.32508169 -1.7672426 6.40625443 0 0 Z " fill="#B98D3D" transform="translate(198,2)"/>
<path d="M0 0 C1.97346879 4.93367197 2.34916177 8.76257341 2 14 C0 16 0 16 -2.9375 16.125 C-3.948125 16.08375 -4.95875 16.0425 -6 16 C-9.11987668 15.65192708 -9.11987668 15.65192708 -11.0625 18 C-11.701875 18.66 -12.34125 19.32 -13 20 C-13.66 20 -14.32 20 -15 20 C-15.8125 18.3125 -15.8125 18.3125 -16 16 C-14.35511706 14.31183067 -12.68662458 12.64646685 -11 11 C-10.12761142 8.32209104 -10.12761142 8.32209104 -10 6 C-11.1446875 6.495 -11.1446875 6.495 -12.3125 7 C-15 8 -15 8 -18 8 C-17.67 6.35 -17.34 4.7 -17 3 C-14.91798472 2.49453964 -12.83432933 1.99583165 -10.75 1.5 C-9.58984375 1.2215625 -8.4296875 0.943125 -7.234375 0.65625 C-4 0 -4 0 0 0 Z M-6 5 C-5.67 6.98 -5.34 8.96 -5 11 C-4.01 11.33 -3.02 11.66 -2 12 C-2 10.02 -2 8.04 -2 6 C-3.32 5.67 -4.64 5.34 -6 5 Z " fill="#B88B39" transform="translate(293,83)"/>
<path d="M0 0 C1.65 0 3.3 0 5 0 C6.58203125 1.75 6.58203125 1.75 7.8125 4 C8.23144531 4.7425 8.65039062 5.485 9.08203125 6.25 C9.38496094 6.8275 9.68789062 7.405 10 8 C10.33 5.36 10.66 2.72 11 0 C12.32 0 13.64 0 15 0 C15 6.27 15 12.54 15 19 C10 18 10 18 8.41796875 16.15234375 C8.01191406 15.42144531 7.60585937 14.69054687 7.1875 13.9375 C6.76855469 13.20402344 6.34960938 12.47054688 5.91796875 11.71484375 C5.61503906 11.14894531 5.31210938 10.58304688 5 10 C4.67 12.64 4.34 15.28 4 18 C2.68 18.33 1.36 18.66 0 19 C0 12.73 0 6.46 0 0 Z " fill="#B68A36" transform="translate(177,1)"/>
<path d="M0 0 C4.66209202 1.72312209 8.03332953 4.04444161 12 7 C11.67 8.32 11.34 9.64 11 11 C7.66666667 9.33333333 4.33333333 7.66666667 1 6 C2.24546405 9.73639216 3.63404953 10.18756513 7 12 C6.67 13.32 6.34 14.64 6 16 C5.2575 15.690625 4.515 15.38125 3.75 15.0625 C1.49307824 14.1905075 -0.6450153 13.52332993 -3 13 C-3 13.66 -3 14.32 -3 15 C-1.44144019 16.35712166 -1.44144019 16.35712166 0.5 17.625 C1.1496875 18.07101563 1.799375 18.51703125 2.46875 18.9765625 C2.9740625 19.31429687 3.479375 19.65203125 4 20 C3.67 20.99 3.34 21.98 3 23 C-0.355762 22.38024215 -2.52263528 21.15537152 -5.25 19.125 C-5.95640625 18.61195312 -6.6628125 18.09890625 -7.390625 17.5703125 C-7.92171875 17.05210938 -8.4528125 16.53390625 -9 16 C-9 11.86002304 -6.83167083 9.54392969 -4.5 6.3125 C-4.07074219 5.70599609 -3.64148438 5.09949219 -3.19921875 4.47460938 C-2.13906862 2.97861974 -1.07034429 1.488713 0 0 Z " fill="#B88C3A" transform="translate(244,19)"/>
<path d="M0 0 C3.4375 0.0625 3.4375 0.0625 7 1 C9 3.1875 9 3.1875 10 6 C9.6875 9.3125 9.6875 9.3125 9 12 C8.401875 12.061875 7.80375 12.12375 7.1875 12.1875 C4.72747986 12.82092018 4.72747986 12.82092018 3.6875 15.5625 C3.130625 16.366875 2.57375 17.17125 2 18 C-1.94997891 18.64636018 -4.03778714 18.65835617 -7.375 16.375 C-9.37138247 13.45721024 -9.92639149 11.53320839 -10 8 C-8.5625 5.625 -8.5625 5.625 -7 4 C-6.01 4.33 -5.02 4.66 -4 5 C-4 7.97 -4 10.94 -4 14 C-3.01 14 -2.02 14 -1 14 C-1.165 13.505 -1.33 13.01 -1.5 12.5 C-2.21961907 8.90190467 -2.1778036 5.67460767 -2 2 C-1.34 1.34 -0.68 0.68 0 0 Z M2 4 C2.33 6.31 2.66 8.62 3 11 C3.99 10.34 4.98 9.68 6 9 C5.34 7.35 4.68 5.7 4 4 C3.34 4 2.68 4 2 4 Z " fill="#B98D3D" transform="translate(271,49)"/>
<path d="M0 0 C0.7425 0.2475 1.485 0.495 2.25 0.75 C2.25 1.41 2.25 2.07 2.25 2.75 C3.343125 2.8325 4.43625 2.915 5.5625 3 C9.25 3.75 9.25 3.75 11.25 5.5 C12.53768684 8.39729539 12.2424531 9.77264071 11.25 12.75 C10.26 14.235 10.26 14.235 9.25 15.75 C4.49325519 16.39498235 1.4178509 16.25758537 -2.6875 13.6875 C-5.38105133 11.51288975 -5.77849167 10.66452498 -6.9375 7.1875 C-6.75 3.75 -6.75 3.75 -5.125 1.25 C-2.75 -0.25 -2.75 -0.25 0 0 Z M-1.75 3.75 C-2.08 5.07 -2.41 6.39 -2.75 7.75 C-1.76 8.245 -1.76 8.245 -0.75 8.75 C-0.09 7.1 0.57 5.45 1.25 3.75 C0.26 3.75 -0.73 3.75 -1.75 3.75 Z M4.25 6.75 C3.59 8.07 2.93 9.39 2.25 10.75 C4.23 11.74 4.23 11.74 6.25 12.75 C6.91 11.43 7.57 10.11 8.25 8.75 C6.93 8.09 5.61 7.43 4.25 6.75 Z " fill="#B88D3C" transform="translate(270.75,159.25)"/>
<path d="M0 0 C6.6 0 13.2 0 20 0 C20.33 1.32 20.66 2.64 21 4 C19.92016602 5.64746094 19.92016602 5.64746094 18.25390625 7.234375 C17.66416016 7.80800781 17.07441406 8.38164063 16.46679688 8.97265625 C15.83837891 9.55917969 15.20996094 10.14570312 14.5625 10.75 C13.93794922 11.35199219 13.31339844 11.95398438 12.66992188 12.57421875 C11.12421404 14.0609301 9.5634768 15.5319865 8 17 C7.01 16.67 6.02 16.34 5 16 C5 14.68 5 13.36 5 12 C5.66 12 6.32 12 7 12 C8.09658936 8.71023192 7.79953138 7.28696233 7 4 C5.02 4 3.04 4 1 4 C0.67 2.68 0.34 1.36 0 0 Z M11 4 C11 4.66 11 5.32 11 6 C11.99 5.67 12.98 5.34 14 5 C13.01 4.67 12.02 4.34 11 4 Z " fill="#B78B39" transform="translate(268,69)"/>
<path d="M0 0 C5.08515942 4.46877646 8.88789969 9.99809225 12 16 C11.67 16.66 11.34 17.32 11 18 C9.68 18 8.36 18 7 18 C6.34 17.01 5.68 16.02 5 15 C1.91634129 14.7497843 1.91634129 14.7497843 -1 15 C-1.33 16.65 -1.66 18.3 -2 20 C-3.32 20.33 -4.64 20.66 -6 21 C-5.68955976 18.60388361 -5.37671642 16.20812165 -5.0625 13.8125 C-4.97548828 13.13896484 -4.88847656 12.46542969 -4.79882812 11.77148438 C-4.32174523 8.14918834 -3.76987965 4.57196415 -3 1 C-2.01 0.67 -1.02 0.34 0 0 Z M0 7 C0.33 8.32 0.66 9.64 1 11 C1 9.68 1 8.36 1 7 C0.67 7 0.34 7 0 7 Z " fill="#B88C3B" transform="translate(164,2)"/>
<path d="M0 0 C3.5625 0.375 3.5625 0.375 5.4375 2.1875 C7.82924706 6.83811929 8.24090364 11.23442033 7.5625 16.375 C5.9375 18.5 5.9375 18.5 3.5625 19.375 C0.5625 19.625 0.5625 19.625 -2.4375 18.375 C-5.38746485 14.23624335 -6.4730702 10.49546131 -6.3125 5.4375 C-5.09219706 1.16643972 -4.45802716 0.48633024 0 0 Z M-1.4375 3.375 C-2.69205926 7.64050147 -2.2755113 10.33137513 -0.4375 14.375 C0.5525 14.705 1.5425 15.035 2.5625 15.375 C3.86658759 14.28430721 3.86658759 14.28430721 3.8125 11.625 C3.53502094 8.01777217 2.74414329 6.22791814 0.5625 3.375 C-0.0975 3.375 -0.7575 3.375 -1.4375 3.375 Z " fill="#B88D3C" transform="translate(209.4375,205.625)"/>
<path d="M0 0 C-0.30212821 4.83405138 -2.7839716 7.614158 -5.72265625 11.23046875 C-7.19509816 12.9065411 -7.19509816 12.9065411 -7 15 C-6.01 15 -5.02 15 -4 15 C-3.67 14.01 -3.34 13.02 -3 12 C-1.68 12 -0.36 12 1 12 C0.67694236 14.98828314 0.34810879 16.61321245 -1.6875 18.875 C-4.86249229 20.41959084 -6.66802549 20.0140792 -10 19 C-12.20009864 15.69985205 -12.62319003 14.8281673 -12 11 C-10.49843252 8.7816564 -8.83541439 6.97307047 -7 5 C-8.98 5 -10.96 5 -13 5 C-13 3.68 -13 2.36 -13 1 C-8.59085217 -0.10228696 -4.51617599 -0.07654536 0 0 Z " fill="#B98D3C" transform="translate(202,208)"/>
<path d="M0 0 C0.3519934 4.9279076 -0.6989588 7.68554776 -3 12 C-3 12.99 -3 13.98 -3 15 C-2.01 14.67 -1.02 14.34 0 14 C0.33 13.01 0.66 12.02 1 11 C2.32 11.33 3.64 11.66 5 12 C4.64505955 14.62655933 4.27538036 16.57968261 2.8125 18.8125 C0.11075568 20.58260835 -1.84673574 20.39415803 -5 20 C-6.875 18.875 -6.875 18.875 -8 17 C-8.30152754 13.45705143 -8.04478472 10.39555034 -7 7 C-8.65 7 -10.3 7 -12 7 C-11.9375 5.1875 -11.9375 5.1875 -11 3 C-7.03126406 0.90330932 -4.51561274 0 0 0 Z " fill="#B98D3C" transform="translate(227,200)"/>
<path d="M0 0 C0.33 1.32 0.66 2.64 1 4 C-2.02419525 3.41196203 -5.01758453 2.77321882 -8 2 C-7.67 3.32 -7.34 4.64 -7 6 C-5.68 6.33 -4.36 6.66 -3 7 C-3.875 11.875 -3.875 11.875 -5 13 C-3.35 13.33 -1.7 13.66 0 14 C0 14.99 0 15.98 0 17 C-3.9813783 18.3271261 -7.85045227 18.06915913 -12 18 C-11.44271087 14.65626525 -10.64826111 11.96687001 -9 9 C-9.99 8.67 -10.98 8.34 -12 8 C-12.6875 5.75 -12.6875 5.75 -13 3 C-9.63171449 -3.06291393 -5.96354493 -1.91283517 0 0 Z " fill="#B3842C" transform="translate(186,211)"/>
<path d="M0 0 C1.0725 0.103125 2.145 0.20625 3.25 0.3125 C3.25 1.3025 3.25 2.2925 3.25 3.3125 C1.27 3.9725 -0.71 4.6325 -2.75 5.3125 C-2.75 6.3025 -2.75 7.2925 -2.75 8.3125 C0.715 7.8175 0.715 7.8175 4.25 7.3125 C4.58 9.2925 4.91 11.2725 5.25 13.3125 C6.24 12.3225 7.23 11.3325 8.25 10.3125 C9.24 10.6425 10.23 10.9725 11.25 11.3125 C10.85935585 13.77778135 10.51760629 15.04557988 8.7265625 16.83203125 C8.11554688 17.25871094 7.50453125 17.68539062 6.875 18.125 C6.26914062 18.56457031 5.66328125 19.00414062 5.0390625 19.45703125 C3.25 20.3125 3.25 20.3125 0.25 19.3125 C0.25 17.0025 0.25 14.6925 0.25 12.3125 C-2.06 11.9825 -4.37 11.6525 -6.75 11.3125 C-7.79068369 7.58338344 -8.07213295 5.92992148 -6.25 2.4375 C-3.75 0.3125 -3.75 0.3125 0 0 Z " fill="#B3842C" transform="translate(253.75,180.6875)"/>
<path d="M0 0 C1.32 0.33 2.64 0.66 4 1 C3.67 5.29 3.34 9.58 3 14 C4.2375 12.659375 5.475 11.31875 6.75 9.9375 C8.859375 7.65234375 8.859375 7.65234375 11 6 C13.265625 6.25390625 13.265625 6.25390625 15 7 C13.40562661 11.0046908 10.75496909 13.41329271 7.625 16.3125 C6.66851562 17.21613281 5.71203125 18.11976562 4.7265625 19.05078125 C2 21 2 21 -0.3515625 20.79296875 C-0.89554688 20.53128906 -1.43953125 20.26960938 -2 20 C-2.22731216 13.06697907 -1.42002108 6.7831364 0 0 Z " fill="#B88C3B" transform="translate(226,9)"/>
<path d="M0 0 C-0.4793247 4.31392226 -1.7457985 6.16569547 -5 9 C-4.175 9.5775 -3.35 10.155 -2.5 10.75 C-1.2625 11.86375 -1.2625 11.86375 0 13 C0 14.32 0 15.64 0 17 C-2.65296979 16.01461122 -4.91702431 15.05762201 -7.25 13.4375 C-11.06159171 11.44507706 -14.7540104 11.26826514 -19 11 C-19 9.68 -19 8.36 -19 7 C-17.845 6.95875 -16.69 6.9175 -15.5 6.875 C-10.86762122 6.34017829 -8.2297689 4.26704215 -4.76171875 1.27734375 C-3 0 -3 0 0 0 Z " fill="#B88C3A" transform="translate(297,102)"/>
<path d="M0 0 C2.65204896 0.36834013 3.73840056 0.6867691 5.484375 2.77734375 C5.90203125 3.49019531 6.3196875 4.20304688 6.75 4.9375 C7.17796875 5.64777344 7.6059375 6.35804688 8.046875 7.08984375 C9 9 9 9 9 11 C9.5775 10.319375 10.155 9.63875 10.75 8.9375 C11.86375 7.9784375 11.86375 7.9784375 13 7 C15.25 7.25 15.25 7.25 17 8 C15.5140084 12.59306496 13.14985318 15.43569245 10 19 C9.01 18.67 8.02 18.34 7 18 C5.97265625 15.85546875 5.97265625 15.85546875 5.0625 13.1875 C3.58244486 9.15463657 2.1019357 6.98704919 -1 4 C-0.75 1.75 -0.75 1.75 0 0 Z " fill="#B88B3A" transform="translate(259,171)"/>
<path d="M0 0 C2.3125 -0.3125 2.3125 -0.3125 5 0 C6.8125 2.5 6.8125 2.5 8 5 C8.5775 4.175 9.155 3.35 9.75 2.5 C10.4925 1.675 11.235 0.85 12 0 C13.32 0 14.64 0 16 0 C15.55055737 2.9213771 14.75289114 4.34749684 13 6.8125 C10.79195245 10.33157578 10.32805772 12.8992785 10 17 C8.68 17 7.36 17 6 17 C5.9071875 15.2365625 5.9071875 15.2365625 5.8125 13.4375 C5.23442718 8.50636364 3.01106834 5.86034402 0 2 C0 1.34 0 0.68 0 0 Z " fill="#B88C3B" transform="translate(171,106)"/>
<path d="M0 0 C3.9492568 0.55105909 7.34920174 1.38935371 11 3 C11.33 2.01 11.66 1.02 12 0 C12.99 0 13.98 0 15 0 C16.31626692 3.61973402 17 6.09567131 17 10 C10.5811453 8.26375242 4.86215164 6.14819255 -1 3 C-0.67 2.01 -0.34 1.02 0 0 Z " fill="#B98D3C" transform="translate(271,151)"/>
<path d="M0 0 C1.32 0 2.64 0 4 0 C2.9007105 6.31121503 1.41862058 12.06338584 -1 18 C-2.32 18 -3.64 18 -5 18 C-4.42934122 11.58008874 -2.32655091 5.98410537 0 0 Z " fill="#B88C3A" transform="translate(218,7)"/>
<path d="M0 0 C3.0625 0.1875 3.0625 0.1875 5.0625 2.1875 C4.50694444 6.74305556 4.50694444 6.74305556 3.0625 8.1875 C0.0625 8.3125 0.0625 8.3125 -2.9375 8.1875 C-3.9375 7.1875 -3.9375 7.1875 -4.0625 4.1875 C-3.89838889 0.24883333 -3.89838889 0.24883333 0 0 Z " fill="#B68936" transform="translate(285.9375,128.8125)"/>
<path d="M0 0 C3.3 0 6.6 0 10 0 C9.67 0.66 9.34 1.32 9 2 C7.02 2 5.04 2 3 2 C3 3.65 3 5.3 3 7 C4.32 7.33 5.64 7.66 7 8 C5.68 8 4.36 8 3 8 C3 10.31 3 12.62 3 15 C2.01 15 1.02 15 0 15 C0 10.05 0 5.1 0 0 Z " fill="#B3842C" transform="translate(219,107)"/>
<path d="M0 0 C-6.435 1.98 -6.435 1.98 -13 4 C-12.5641315 9.88422475 -11.18776666 14.42894014 -8.7421875 19.80078125 C-8 22 -8 22 -9 25 C-9.79441072 23.12616097 -10.58539974 21.25087114 -11.375 19.375 C-11.81585937 18.33085937 -12.25671875 17.28671875 -12.7109375 16.2109375 C-16.30876866 7.24906716 -16.30876866 7.24906716 -16 2 C-14.08654673 1.46748234 -12.1690705 0.94940517 -10.25 0.4375 C-9.18265625 0.14746094 -8.1153125 -0.14257812 -7.015625 -0.44140625 C-4 -1 -4 -1 0 0 Z " fill="#C89041" transform="translate(16,174)"/>
<path d="M0 0 C0.66 0 1.32 0 2 0 C2.52955234 1.78910903 3.0483937 3.58139148 3.5625 5.375 C3.85253906 6.37273437 4.14257812 7.37046875 4.44140625 8.3984375 C5 11 5 11 4 13 C3.01 12.67 2.02 12.34 1 12 C-1.028972 7.63771021 -1.10558038 4.64343758 0 0 Z " fill="#BD8F38" transform="translate(123,129)"/>
<path d="M0 0 C0.68191406 0.08121094 1.36382812 0.16242187 2.06640625 0.24609375 C3.11248047 0.34470703 3.11248047 0.34470703 4.1796875 0.4453125 C5.89387888 0.60968702 7.60551648 0.80032029 9.31640625 0.99609375 C9.31640625 1.32609375 9.31640625 1.65609375 9.31640625 1.99609375 C4.69640625 1.99609375 0.07640625 1.99609375 -4.68359375 1.99609375 C-5.13734375 3.46046875 -5.59109375 4.92484375 -6.05859375 6.43359375 C-6.83203125 8.9296875 -6.83203125 8.9296875 -7.68359375 10.99609375 C-8.67359375 11.49109375 -8.67359375 11.49109375 -9.68359375 11.99609375 C-9.49796875 11.04734375 -9.31234375 10.09859375 -9.12109375 9.12109375 C-8.39672743 6.09740582 -8.39672743 6.09740582 -9.68359375 3.99609375 C-6.78291369 0.13848831 -4.77664752 -0.41737697 0 0 Z " fill="#B08135" transform="translate(74.68359375,51.00390625)"/>
<path d="M0 0 C1.2375 0.1546875 1.2375 0.1546875 2.5 0.3125 C3.16 1.3025 3.82 2.2925 4.5 3.3125 C4.17 4.3025 3.84 5.2925 3.5 6.3125 C2.736875 5.9825 1.97375 5.6525 1.1875 5.3125 C-1.49069135 4.13813314 -1.49069135 4.13813314 -4.5 4.3125 C-4.83 4.9725 -5.16 5.6325 -5.5 6.3125 C-4.75209413 2.57297064 -4.13310341 0.51663793 0 0 Z " fill="#B68834" transform="translate(276.5,162.6875)"/>
<path d="M0 0 C0.66 0.33 1.32 0.66 2 1 C1.6875 2.875 1.6875 2.875 1 5 C-2 7 -2 7 -4.1875 6.625 C-4.785625 6.41875 -5.38375 6.2125 -6 6 C-4.98545548 3.4636387 -4.3146444 2.20648539 -2 0.6875 C-1.34 0.460625 -0.68 0.23375 0 0 Z " fill="#B98E3E" transform="translate(241,196)"/>
<path d="M0 0 C0.99 0.66 1.98 1.32 3 2 C2.01 4.97 1.02 7.94 0 11 C-1.32 10.34 -2.64 9.68 -4 9 C-3.67 8.01 -3.34 7.02 -3 6 C-2.01 6 -1.02 6 0 6 C0 4.02 0 2.04 0 0 Z " fill="#BD9347" transform="translate(260,45)"/>
<path d="M0 0 C2.0625 1.6875 2.0625 1.6875 4 4 C3.75 6.75 3.75 6.75 3 9 C2.01 9 1.02 9 0 9 C-1.33981486 9.3062434 -2.67511887 9.63451555 -4 10 C-2.768606 7.53721199 -1.21935077 6.57502313 1 5 C0.67 3.35 0.34 1.7 0 0 Z " fill="#BC9346" transform="translate(279,163)"/>
<path d="M0 0 C3.96 0 7.92 0 12 0 C12.33 1.65 12.66 3.3 13 5 C12.01 5.495 12.01 5.495 11 6 C11 5.34 11 4.68 11 4 C10.34 4 9.68 4 9 4 C9 3.34 9 2.68 9 2 C6.03 1.67 3.06 1.34 0 1 C0 0.67 0 0.34 0 0 Z " fill="#B88C3A" transform="translate(219,106)"/>
<path d="M0 0 C1.32 0 2.64 0 4 0 C4 1.98 4 3.96 4 6 C2.68 6.33 1.36 6.66 0 7 C0 4.69 0 2.38 0 0 Z " fill="#B58732" transform="translate(198,2)"/>
<path d="M0 0 C1.32 0 2.64 0 4 0 C4 2.64 4 5.28 4 8 C3.67 8 3.34 8 3 8 C2.67 6.35 2.34 4.7 2 3 C1.67 5.31 1.34 7.62 1 10 C0.67 10 0.34 10 0 10 C0 6.7 0 3.4 0 0 Z " fill="#BA9042" transform="translate(188,1)"/>
<path d="M0 0 C2.29013653 3.4352048 2.17842973 4.985331 2 9 C1.01 8.67 0.02 8.34 -1 8 C-1.04241723 5.66705225 -1.04092937 3.33297433 -1 1 C-0.67 0.67 -0.34 0.34 0 0 Z " fill="#B58732" transform="translate(205,210)"/>
<path d="M0 0 C2.25 0.25 2.25 0.25 4 1 C3.34 2.32 2.68 3.64 2 5 C1.67 4.34 1.34 3.68 1 3 C0.34 3.66 -0.32 4.32 -1 5 C-1.99 4.67 -2.98 4.34 -4 4 C-2.25 1.9375 -2.25 1.9375 0 0 Z " fill="#BC9245" transform="translate(272,178)"/>
</svg>
