<?xml version="1.0" encoding="UTF-8"?>
<svg version="1.1" xmlns="http://www.w3.org/2000/svg" width="756" height="212">
<path d="M0 0 C1.13308594 -0.06638672 2.26617187 -0.13277344 3.43359375 -0.20117188 C11.38138706 -0.3455925 11.38138706 -0.3455925 14.60131836 2.08496094 C16.37068259 4.51682548 17.5297758 6.9335188 18.75 9.6875 C19.18333649 10.63135056 19.18333649 10.63135056 19.62542725 11.5942688 C22.15256114 17.11304878 24.48845605 22.70591112 26.8125 28.3125 C27.49327937 29.93655921 28.17491677 31.56025902 28.85742188 33.18359375 C30.30370094 36.62831926 31.74401972 40.07545618 33.18017578 43.52441406 C36.37611942 51.19642441 39.59332196 58.85951352 42.80859375 66.5234375 C43.39959514 67.93241836 43.99058359 69.34140465 44.58155823 70.75039673 C45.97091228 74.06281758 47.36041183 77.37517736 48.75 80.6875 C48.75808685 79.72727936 48.76617371 78.76705872 48.77450562 77.77774048 C48.85188396 68.74253152 48.93960187 59.7074747 49.03752708 50.67246437 C49.08754069 46.02711619 49.13387009 41.38179131 49.171875 36.73632812 C49.20866408 32.25585616 49.25500624 27.77557684 49.30806351 23.29526901 C49.32664149 21.583229 49.34173678 19.87114764 49.35334396 18.15904617 C49.37014852 15.76679878 49.39916852 13.37499588 49.43115234 10.98291016 C49.43331253 10.27009384 49.43547272 9.55727753 49.43769836 8.82286072 C49.52189568 3.91560432 49.52189568 3.91560432 51.75 1.6875 C55.7880942 1.09456465 59.86114486 1.13139614 63.9375 1.0625 C65.06220703 1.00449219 66.18691406 0.94648438 67.34570312 0.88671875 C75.4881062 0.76226109 75.4881062 0.76226109 78.94262695 3.29516602 C80.74576262 5.33505001 82.25671964 7.41325862 83.75 9.6875 C84.58129241 10.75023442 85.4203802 11.80694883 86.26953125 12.85546875 C87.02621094 13.85191406 87.78289062 14.84835938 88.5625 15.875 C89.31144531 16.85855469 90.06039062 17.84210937 90.83203125 18.85546875 C91.25049316 19.40638184 91.66895508 19.95729492 92.10009766 20.52490234 C95.96614388 25.59229468 99.86159335 30.63725847 103.75 35.6875 C103.78758423 34.19585327 103.78758423 34.19585327 103.82592773 32.67407227 C103.91984882 28.99701253 104.02010619 25.3201485 104.12231445 21.64331055 C104.16572146 20.049607 104.20739219 18.4558552 104.24731445 16.86206055 C104.30487807 14.57586092 104.36861149 12.28990551 104.43359375 10.00390625 C104.45030624 9.28723282 104.46701874 8.57055939 104.48423767 7.83216858 C104.63612829 2.80137171 104.63612829 2.80137171 105.75 1.6875 C110.13405196 1.20952817 114.53160497 1.12925168 118.9375 1 C120.17048828 0.92072266 121.40347656 0.84144531 122.67382812 0.75976562 C124.46530273 0.71819336 124.46530273 0.71819336 126.29296875 0.67578125 C127.38633545 0.62977783 128.47970215 0.58377441 129.60620117 0.53637695 C134.01510291 2.15072592 135.39836837 4.5474144 137.58790588 8.6111908 C139.7412381 14.31151715 139.59743299 19.97861576 139.5546875 26.0078125 C139.56596215 27.36117904 139.57985341 28.71452606 139.59622192 30.06784058 C139.63198609 33.59594715 139.63266898 37.12318244 139.62554932 40.65142822 C139.62463075 44.26516929 139.65757461 47.87859353 139.6875 51.4921875 C139.74110331 58.55733909 139.75757562 65.62212702 139.75 72.6875 C140.23243164 71.5315332 140.71486328 70.37556641 141.21191406 69.18457031 C146.33439439 56.91403696 151.46957585 44.64886917 156.61645508 32.3885498 C157.6612164 29.89905662 158.70475571 27.40905485 159.74804688 24.91894531 C161.40658481 20.96304801 163.07694084 17.0122776 164.75 13.0625 C165.23500977 11.90395508 165.72001953 10.74541016 166.21972656 9.55175781 C166.88439941 7.99086426 166.88439941 7.99086426 167.5625 6.3984375 C167.94019531 5.50431152 168.31789063 4.61018555 168.70703125 3.68896484 C169.75 1.6875 169.75 1.6875 171.75 0.6875 C175.72359569 0.4187662 179.70583892 0.45592295 183.6875 0.4375 C185.35329102 0.4065625 185.35329102 0.4065625 187.05273438 0.375 C188.11685547 0.36984375 189.18097656 0.3646875 190.27734375 0.359375 C191.25437256 0.3500293 192.23140137 0.34068359 193.23803711 0.33105469 C195.75 0.6875 195.75 0.6875 197.4699707 1.98168945 C199.81844383 5.11134457 201.34010174 8.59483207 203 12.125 C203.42764648 13.02895508 203.85529297 13.93291016 204.29589844 14.86425781 C209.14815734 25.29406063 213.5283404 35.92415352 217.90332031 46.56054688 C218.54481939 48.11983383 219.18642145 49.67907843 219.828125 51.23828125 C220.14767151 52.01479034 220.46721802 52.79129944 220.79644775 53.59133911 C223.0901973 59.14393602 225.45728645 64.6614782 227.859375 70.16796875 C228.51936448 71.68905873 229.179198 73.2102164 229.83886719 74.73144531 C230.78500642 76.91261851 231.73512569 79.09149505 232.6998291 81.26452637 C233.5824505 83.25349119 234.44889649 85.2488143 235.3125 87.24609375 C236.05693359 88.93690063 236.05693359 88.93690063 236.81640625 90.66186523 C237.81235691 93.88958922 237.80042776 95.5136153 236.75 98.6875 C234.04387294 101.39362706 226.01928073 99.92265568 222.375 99.9375 C221.116875 99.958125 219.85875 99.97875 218.5625 100 C217.35851562 100.00515625 216.15453125 100.0103125 214.9140625 100.015625 C213.80498535 100.0249707 212.6959082 100.03431641 211.55322266 100.04394531 C208.75 99.6875 208.75 99.6875 206.95141602 98.31762695 C205.38455382 96.19164872 204.22522819 93.99584818 203.0625 91.625 C202.62550781 90.74714844 202.18851563 89.86929688 201.73828125 88.96484375 C200.75 86.6875 200.75 86.6875 200.75 84.6875 C192.17 84.6875 183.59 84.6875 174.75 84.6875 C174.42 86.3375 174.09 87.9875 173.75 89.6875 C173.12982633 91.28961532 172.46326722 92.87460565 171.75 94.4375 C171.399375 95.21609375 171.04875 95.9946875 170.6875 96.796875 C169.75 98.6875 169.75 98.6875 168.75 99.6875 C164.27668042 99.94130234 159.7921654 99.87272721 155.3125 99.875 C154.04599609 99.88724609 152.77949219 99.89949219 151.47460938 99.91210938 C150.26740234 99.91404297 149.06019531 99.91597656 147.81640625 99.91796875 C146.1449353 99.92413208 146.1449353 99.92413208 144.43969727 99.93041992 C141.75 99.6875 141.75 99.6875 139.75 97.6875 C138.76 98.3475 137.77 99.0075 136.75 99.6875 C128.51111167 101.18739344 117.65918483 102.18018021 110.4296875 97.5703125 C108.33114774 95.01466508 106.55318593 92.45615738 104.90283203 89.59228516 C103.16929193 86.72801581 101.13186879 84.1189148 99.09838867 81.46289062 C97.57704768 79.47564332 96.0918498 77.46552691 94.609375 75.44921875 C91.82319191 71.71390705 88.82860413 68.18375997 85.75 64.6875 C85.73018066 65.67669434 85.71036133 66.66588867 85.68994141 67.68505859 C85.61396544 71.34922077 85.52523648 75.01298164 85.43261719 78.67675781 C85.39429415 80.26359138 85.35944712 81.85051281 85.328125 83.4375 C85.28254569 85.71646566 85.22454162 87.99482468 85.1640625 90.2734375 C85.15251129 90.98494965 85.14096008 91.69646179 85.12905884 92.42953491 C84.97774341 97.45975659 84.97774341 97.45975659 82.75 99.6875 C80.16796875 99.94628906 80.16796875 99.94628906 76.9375 99.953125 C75.77992188 99.95570312 74.62234375 99.95828125 73.4296875 99.9609375 C72.21539062 99.95320313 71.00109375 99.94546875 69.75 99.9375 C68.53570312 99.94523437 67.32140625 99.95296875 66.0703125 99.9609375 C64.33394531 99.95707031 64.33394531 99.95707031 62.5625 99.953125 C61.49644531 99.95086914 60.43039062 99.94861328 59.33203125 99.94628906 C56.75 99.6875 56.75 99.6875 54.75 97.6875 C54.09 98.3475 53.43 99.0075 52.75 99.6875 C48.16834538 100.28423037 43.55331459 100.2436415 38.9375 100.3125 C37.01067383 100.39951172 37.01067383 100.39951172 35.04492188 100.48828125 C25.83692056 100.61290802 25.83692056 100.61290802 22.85400391 98.07324219 C21.52239689 95.97879249 20.63852432 94.00298901 19.75 91.6875 C18.76 89.7075 17.77 87.7275 16.75 85.6875 C8.5 85.3575 0.25 85.0275 -8.25 84.6875 C-9.24 87.6575 -10.23 90.6275 -11.25 93.6875 C-12.97151899 98.54825949 -12.97151899 98.54825949 -15.25 99.6875 C-19.65744315 100.14712394 -24.0724547 100.2442383 -28.5 100.375 C-29.72847656 100.45427734 -30.95695312 100.53355469 -32.22265625 100.61523438 C-41.02321536 100.82023115 -41.02321536 100.82023115 -44.44726562 97.65869141 C-47.70718754 92.6050463 -48.72295818 88.73234006 -48.25 82.6875 C-47.31054688 79.74194336 -47.31054688 79.74194336 -45.96875 76.77734375 C-45.46408203 75.64087402 -44.95941406 74.5044043 -44.43945312 73.33349609 C-44.16496338 72.73108093 -43.89047363 72.12866577 -43.60766602 71.50799561 C-42.42385991 68.90896329 -41.268877 66.29745102 -40.11242676 63.68615723 C-39.4883413 62.27696123 -38.86290262 60.86836387 -38.23620605 59.46032715 C-34.27860017 50.54914515 -30.52021045 41.55412654 -26.75 32.5625 C-26.07370082 30.95298768 -25.39727136 29.3435301 -24.72070312 27.73413086 C-24.07421736 26.19515032 -23.42773295 24.65616922 -22.78125 23.1171875 C-22.47328491 22.38498489 -22.16531982 21.65278229 -21.84802246 20.89839172 C-20.46200845 17.598268 -19.08567516 14.29522712 -17.7421875 10.97753906 C-17.30132812 9.8944043 -16.86046875 8.81126953 -16.40625 7.6953125 C-16.03306641 6.76605957 -15.65988281 5.83680664 -15.27539062 4.87939453 C-12.35076017 -1.37235124 -6.0560245 0.12574237 0 0 Z " fill="#00C7F9" transform="translate(318.25,17.3125)"/>
<path d="M0 0 C1.71219727 -0.08701172 1.71219727 -0.08701172 3.45898438 -0.17578125 C11.5731968 -0.29908313 11.5731968 -0.29908313 14.41943359 2.0612793 C15.80685288 4.18527335 16.74533916 6.26971576 17.6875 8.625 C18.27398315 9.8634668 18.27398315 9.8634668 18.87231445 11.12695312 C20.20572283 13.95645039 21.45172226 16.81406933 22.6875 19.6875 C23.15679932 20.76676758 23.62609863 21.84603516 24.10961914 22.95800781 C29.2436046 34.81460818 34.24077789 46.72946315 39.19947815 58.66023254 C40.88773336 62.7183893 42.59228616 66.76924885 44.30961609 70.81518555 C45.44197773 73.48578048 46.5672851 76.15931447 47.69143677 78.83337402 C48.22553455 80.09940448 48.76265081 81.36416627 49.302948 82.62756348 C50.05001023 84.37583137 50.78504464 86.12922417 51.51953125 87.8828125 C51.93952393 88.8742627 52.3595166 89.86571289 52.79223633 90.88720703 C53.69502482 93.64801156 53.86985983 95.74338619 53.6875 98.625 C49.21806752 100.85971624 43.34493935 100.12286427 38.4375 100.25 C37.20902344 100.32089844 35.98054687 100.39179687 34.71484375 100.46484375 C25.8707524 100.6468998 25.8707524 100.6468998 22.56054688 97.78808594 C19.64301738 93.5642264 18.32854475 89.54813424 16.6875 84.625 C4.3125 85.12 4.3125 85.12 -8.3125 85.625 C-9.09625 87.56375 -9.88 89.5025 -10.6875 91.5 C-13.0625 97.375 -13.0625 97.375 -15.3125 99.625 C-17.63188171 99.92607117 -17.63188171 99.92607117 -20.5690918 99.99487305 C-22.21671761 100.03822029 -22.21671761 100.03822029 -23.89762878 100.08244324 C-25.09027847 100.10035416 -26.28292816 100.11826508 -27.51171875 100.13671875 C-28.73526566 100.15523392 -29.95881256 100.17374908 -31.21943665 100.19282532 C-33.8144339 100.22491945 -36.40951787 100.25054415 -39.00463867 100.27026367 C-41.65954397 100.29832958 -44.31431709 100.34605531 -46.96850586 100.41381836 C-50.79619464 100.51131632 -54.62044923 100.54930983 -58.44921875 100.57421875 C-59.63174728 100.61439621 -60.81427582 100.65457367 -62.03263855 100.69596863 C-70.09390537 100.65418115 -70.09390537 100.65418115 -73.5332489 97.74943542 C-75.34279491 95.45777587 -76.84894234 93.14896861 -78.3125 90.625 C-78.99884521 89.65167725 -79.68519043 88.67835449 -80.39233398 87.67553711 C-80.94219971 86.8428833 -81.49206543 86.01022949 -82.05859375 85.15234375 C-82.66767578 84.23388672 -83.27675781 83.31542969 -83.90429688 82.36914062 C-84.51337891 81.44294922 -85.12246094 80.51675781 -85.75 79.5625 C-86.38615234 78.60150391 -87.02230469 77.64050781 -87.67773438 76.65039062 C-89.22588755 74.31070049 -90.77073662 71.96890353 -92.3125 69.625 C-92.33231934 70.46272949 -92.35213867 71.30045898 -92.37255859 72.16357422 C-92.45060612 75.26865834 -92.53729635 78.37334539 -92.62988281 81.47802734 C-92.68704036 83.48386971 -92.73418596 85.48998918 -92.78125 87.49609375 C-92.81992188 88.75292969 -92.85859375 90.00976562 -92.8984375 91.3046875 C-92.9298584 92.46726074 -92.9612793 93.62983398 -92.99365234 94.82763672 C-93.3125 97.625 -93.3125 97.625 -95.3125 99.625 C-99.53780619 100.24552529 -103.79728581 100.22747148 -108.0625 100.3125 C-109.24328125 100.37888672 -110.4240625 100.44527344 -111.640625 100.51367188 C-120.19648782 100.66301408 -120.19648782 100.66301408 -123.44335938 97.64306641 C-124.97725407 95.3573434 -126.20250683 93.14027667 -127.3125 90.625 C-127.6425 89.965 -127.9725 89.305 -128.3125 88.625 C-128.41087298 85.91461282 -128.44879289 83.22992911 -128.44189453 80.51928711 C-128.44364685 79.68179428 -128.44539917 78.84430145 -128.44720459 77.98143005 C-128.45161648 75.20504706 -128.4486877 72.42872743 -128.4453125 69.65234375 C-128.44598567 67.72945646 -128.4469558 65.80656925 -128.44821167 63.88368225 C-128.44968769 59.85107616 -128.4475369 55.8184922 -128.44287109 51.78588867 C-128.43717004 46.60475119 -128.4404558 41.42366546 -128.44644356 36.24252987 C-128.45004848 32.27156684 -128.44891097 28.30061618 -128.44631577 24.32965279 C-128.4456465 22.41858476 -128.44647489 20.50751563 -128.44879532 18.5964489 C-128.45132113 15.93137488 -128.44748245 13.266386 -128.44189453 10.60131836 C-128.44391876 9.80389221 -128.44594299 9.00646606 -128.44802856 8.18487549 C-128.42676332 2.73926332 -128.42676332 2.73926332 -127.3125 1.625 C-122.9060015 1.20327429 -118.48617817 1.16004778 -114.0625 1.0625 C-112.20044922 0.9687207 -112.20044922 0.9687207 -110.30078125 0.87304688 C-101.34503818 0.71398362 -101.34503818 0.71398362 -98.40820312 3.30517578 C-97.09882681 5.37739358 -96.18159774 7.33716603 -95.3125 9.625 C-94.95462402 10.31875732 -94.59674805 11.01251465 -94.22802734 11.72729492 C-93.06868705 14.13037549 -92.89679559 16.22392249 -92.6875 18.875 C-92.61273438 19.76703125 -92.53796875 20.6590625 -92.4609375 21.578125 C-92.41195312 22.25359375 -92.36296875 22.9290625 -92.3125 23.625 C-91.58546875 22.62533203 -91.58546875 22.62533203 -90.84375 21.60546875 C-86.84375 16.10546875 -86.84375 16.10546875 -85.66137695 14.55932617 C-84.1960904 12.53550315 -84.1960904 12.53550315 -82.79760742 9.82543945 C-80.05974169 5.20643726 -78.14580735 2.16017708 -72.84423828 0.61254883 C-69.4154301 0.31239459 -66.16841203 0.21143917 -62.73901367 0.35571289 C-60.61393023 0.43792827 -58.50696426 0.41742205 -56.38085938 0.38476562 C-46.65579431 0.43974031 -46.65579431 0.43974031 -43.27880859 3.41943359 C-41.98799797 5.46333286 -41.09498516 7.34423857 -40.3125 9.625 C-39.8175 10.615 -39.8175 10.615 -39.3125 11.625 C-38.85982681 16.44463805 -39.55300667 18.6314839 -42.5625 22.375 C-46.42393923 27.39280606 -50.00215648 32.53432993 -53.5 37.8125 C-53.99854492 38.56047852 -54.49708984 39.30845703 -55.01074219 40.07910156 C-58.19565321 44.87657218 -61.28683039 49.72562448 -64.3125 54.625 C-63.33410156 55.98431641 -63.33410156 55.98431641 -62.3359375 57.37109375 C-48.3125 76.89549697 -48.3125 76.89549697 -48.3125 79.625 C-47.6525 79.625 -46.9925 79.625 -46.3125 79.625 C-46.14347672 79.09033112 -45.97445343 78.55566223 -45.80030823 78.00479126 C-43.89046183 72.10546759 -41.64380217 66.4136849 -39.21484375 60.7109375 C-38.82393555 59.78578842 -38.43302734 58.86063934 -38.03027344 57.90745544 C-36.77379698 54.93675719 -35.5122208 51.96826158 -34.25 49 C-33.38668486 46.96448574 -32.52348522 44.92892248 -31.66040039 42.89331055 C-29.58190093 37.99495529 -27.49821991 33.09882848 -25.41162109 28.20391846 C-24.4321671 25.90578043 -23.4540922 23.60706244 -22.4765625 21.30810547 C-21.07521425 18.014662 -19.66472833 14.72522178 -18.25 11.4375 C-17.86384521 10.53241699 -17.47769043 9.62733398 -17.07983398 8.69482422 C-16.55885132 7.4943042 -16.55885132 7.4943042 -16.02734375 6.26953125 C-15.73980225 5.60284424 -15.45226074 4.93615723 -15.15600586 4.24926758 C-12.20354805 -1.43602961 -5.59787491 0.09387157 0 0 Z " fill="#00C6F7" transform="translate(161.3125,17.375)"/>
<path d="M0 0 C3.8865306 3.57190669 6.83425372 8.1993359 8.1875 13.3125 C6.91396594 17.94732886 4.3085504 20.78078508 1.1875 24.3125 C1.93 24.6425 2.6725 24.9725 3.4375 25.3125 C7.64158679 28.37001767 9.67438929 32.484813 10.60296631 37.6020813 C10.81042819 40.08645822 10.89843314 42.54233477 10.9296875 45.03515625 C10.95677292 46.39162514 10.95677292 46.39162514 10.98440552 47.77549744 C11.01325317 49.67547512 11.03114469 51.57564793 11.03857422 53.47583008 C11.06248633 56.37334349 11.16102754 59.26247137 11.26171875 62.15820312 C11.49836867 75.54280386 11.49836867 75.54280386 8.13891602 80.078125 C5.54593928 81.9505442 3.16775431 83.17091952 0.1875 84.3125 C-0.78268066 84.78200073 -0.78268066 84.78200073 -1.77246094 85.26098633 C-3.45703125 86.0546875 -3.45703125 86.0546875 -6.625 87.1875 C-8.21248047 87.77144531 -8.21248047 87.77144531 -9.83203125 88.3671875 C-22.51879095 92.39103527 -38.81729507 92.1731709 -50.8125 86.3125 C-52.12927734 85.67634766 -52.12927734 85.67634766 -53.47265625 85.02734375 C-67.02413169 77.68951617 -74.74247362 63.42694755 -79.875 49.3125 C-82.98737029 36.79906603 -81.51692666 22.78046799 -75.26953125 11.53515625 C-68.1837194 0.75239909 -58.3199004 -6.35219323 -45.8125 -9.6875 C-29.85984028 -12.81547249 -13.06046112 -9.92146617 0 0 Z M-39.8125 30.3125 C-40.68382599 31.38693915 -41.50999567 32.49822794 -42.3125 33.625 C-42.97765625 34.54732422 -42.97765625 34.54732422 -43.65625 35.48828125 C-46.34527209 39.73075867 -46.57769878 44.44865031 -45.8125 49.3125 C-43.05022878 52.66070754 -41.25775847 53.22490817 -37 54.0625 C-35.4221875 54.18625 -35.4221875 54.18625 -33.8125 54.3125 C-33.8125 52.6625 -33.8125 51.0125 -33.8125 49.3125 C-35.1325 48.6525 -36.4525 47.9925 -37.8125 47.3125 C-38.1425 41.7025 -38.4725 36.0925 -38.8125 30.3125 C-39.1425 30.3125 -39.4725 30.3125 -39.8125 30.3125 Z " fill="#000203" transform="translate(624.8125,27.6875)"/>
<path d="M0 0 C1.86205078 -0.0937793 1.86205078 -0.0937793 3.76171875 -0.18945312 C12.7401923 -0.34892009 12.7401923 -0.34892009 15.68945312 2.31298828 C16.97786927 4.36286764 17.91605361 6.29445339 18.75 8.5625 C19.245 9.5525 19.245 9.5525 19.75 10.5625 C19.83372659 12.08398326 19.85730027 13.60905778 19.84765625 15.1328125 C19.84443359 16.02871094 19.84121094 16.92460938 19.83789062 17.84765625 C19.82532227 19.25337891 19.82532227 19.25337891 19.8125 20.6875 C19.80798828 21.63238281 19.80347656 22.57726562 19.79882812 23.55078125 C19.78702375 25.8880477 19.76908799 28.22528169 19.75 30.5625 C25.36 30.5625 30.97 30.5625 36.75 30.5625 C36.72679687 28.56445312 36.70359375 26.56640625 36.6796875 24.5078125 C36.66578264 22.57503761 36.65194794 20.64226148 36.64013672 18.70947266 C36.62511893 16.7033864 36.59971019 14.69738676 36.57421875 12.69140625 C36.56455078 10.80615234 36.56455078 10.80615234 36.5546875 8.8828125 C36.53897705 7.13895264 36.53897705 7.13895264 36.52294922 5.35986328 C36.75 2.5625 36.75 2.5625 38.75 0.5625 C41.45556641 0.33544922 41.45556641 0.33544922 44.8515625 0.3671875 C46.06328125 0.37363281 47.275 0.38007813 48.5234375 0.38671875 C49.79445313 0.40347656 51.06546875 0.42023437 52.375 0.4375 C53.65375 0.44652344 54.9325 0.45554687 56.25 0.46484375 C59.41686082 0.48847704 62.58330743 0.52311042 65.75 0.5625 C73.02574576 10.25238752 72.57080082 19.61711272 72.40625 31.16015625 C72.40012455 33.04535823 72.39638012 34.93056929 72.39489746 36.81578064 C72.38574223 40.74367548 72.3570744 44.6707385 72.3125 48.59838867 C72.25558626 53.63914463 72.23403664 58.67925285 72.2251358 63.72029972 C72.21684165 67.60213205 72.1972245 71.48383314 72.17338562 75.36559868 C72.16198056 77.22558991 72.15246302 79.0855937 72.14485168 80.94560432 C72.13115691 83.53305654 72.10391773 86.11998846 72.07226562 88.70727539 C72.07002991 89.47761612 72.06779419 90.24795685 72.06549072 91.04164124 C71.9794152 96.3330848 71.9794152 96.3330848 69.75 98.5625 C65.5025869 99.15577126 61.22134505 99.11851699 56.9375 99.1875 C55.74833984 99.24550781 54.55917969 99.30351563 53.33398438 99.36328125 C44.77685929 99.48820278 44.77685929 99.48820278 41.88134766 96.87792969 C40.57366037 94.80962429 39.63706453 92.8393252 38.75 90.5625 C38.38688721 89.90942871 38.02377441 89.25635742 37.6496582 88.58349609 C36.6023103 86.23072921 36.52001122 84.58166974 36.5546875 82.015625 C36.56113281 81.17128906 36.56757812 80.32695313 36.57421875 79.45703125 C36.59097656 78.58433594 36.60773437 77.71164063 36.625 76.8125 C36.63402344 75.92433594 36.64304687 75.03617187 36.65234375 74.12109375 C36.6758525 71.93477989 36.71172189 69.74860516 36.75 67.5625 C31.14 67.5625 25.53 67.5625 19.75 67.5625 C19.76160156 69.71652344 19.77320313 71.87054688 19.78515625 74.08984375 C19.79294737 76.16821139 19.79902381 78.24657743 19.80493164 80.32495117 C19.80997101 81.77320073 19.81680253 83.22144517 19.82543945 84.66967773 C19.83752247 86.74724588 19.84323211 88.82474697 19.84765625 90.90234375 C19.85289307 92.15394287 19.85812988 93.40554199 19.86352539 94.69506836 C19.75 97.5625 19.75 97.5625 18.75 98.5625 C14.46508535 98.84400942 10.16805904 98.79432832 5.875 98.8125 C4.66457031 98.833125 3.45414063 98.85375 2.20703125 98.875 C1.04816406 98.88015625 -0.11070312 98.8853125 -1.3046875 98.890625 C-2.37187012 98.8999707 -3.43905273 98.90931641 -4.53857422 98.91894531 C-7.72109068 98.5005702 -8.21564393 97.92961548 -10.25 95.5625 C-13.88957111 90.08137757 -14.82724124 85.25563559 -14.7199707 78.77563477 C-14.7221611 77.93726578 -14.7243515 77.09889679 -14.72660828 76.23512268 C-14.72890188 73.49096952 -14.70277273 70.74791446 -14.67578125 68.00390625 C-14.67085377 66.08959798 -14.66755722 64.17528489 -14.66581726 62.26097107 C-14.65820098 58.26407299 -14.63770419 54.26753607 -14.60668945 50.27075195 C-14.56692825 45.13685458 -14.54904819 40.00319072 -14.53938007 34.86915684 C-14.5294358 29.97654149 -14.50954138 25.08398358 -14.48828125 20.19140625 C-14.48318763 18.78518603 -14.48318763 18.78518603 -14.4779911 17.35055733 C-14.46647417 14.71483537 -14.44796721 12.07926515 -14.42700195 9.44360352 C-14.42431305 8.65560364 -14.42162415 7.86760376 -14.41885376 7.0557251 C-14.32479284 -2.32276433 -8.06404492 0.17782253 0 0 Z " fill="#000101" transform="translate(650.25,18.4375)"/>
<path d="M0 0 C1.40795678 -0.04158659 2.81547897 -0.10289249 4.22167969 -0.18457031 C15.66558812 -0.83839239 15.66558812 -0.83839239 19.52563477 2.3503418 C21.24789431 5.0362599 22.33749841 7.62756388 23.43676758 10.62475586 C23.92072998 11.82430908 24.40469238 13.0238623 24.90332031 14.25976562 C26.47300052 18.22219025 27.8969668 22.23000096 29.31176758 26.24975586 C29.81339843 27.64984455 30.31599652 29.04958708 30.81958008 30.44897461 C32.03646028 33.83699319 33.24027466 37.22947562 34.43676758 40.62475586 C34.85563232 39.44856689 35.27449707 38.27237793 35.70605469 37.06054688 C37.25560583 32.71170482 38.80887033 28.36419698 40.36328125 24.01708984 C41.03650236 22.13268852 41.70870541 20.24792318 42.37988281 18.36279297 C43.34280522 15.65879313 44.30933867 12.95610833 45.27661133 10.25366211 C45.57768295 9.405746 45.87875458 8.5578299 46.18894958 7.68421936 C48.32289587 1.73862757 48.32289587 1.73862757 49.43676758 0.62475586 C51.65532022 0.53692044 53.87665254 0.51780977 56.09692383 0.52709961 C57.09362343 0.52922203 57.09362343 0.52922203 58.11045837 0.53138733 C60.24010657 0.53700068 62.36965097 0.54955532 64.49926758 0.56225586 C65.94002127 0.56726915 67.38077661 0.57183235 68.8215332 0.57592773 C72.3599786 0.58697441 75.89836297 0.60424794 79.43676758 0.62475586 C80.47792181 2.32078102 81.49395136 4.03224523 82.49926758 5.74975586 C83.06774414 6.70108398 83.6362207 7.65241211 84.22192383 8.63256836 C86.77659043 14.9247697 83.31292138 20.90308811 80.89379883 26.82397461 C80.35289108 28.16891747 80.35289108 28.16891747 79.80105591 29.54103088 C78.62279591 32.46709612 77.43613213 35.38967148 76.24926758 38.31225586 C75.43496375 40.32927314 74.62124767 42.34652781 73.80810547 44.36401367 C72.15641672 48.46083928 70.50194885 52.55652737 68.84594727 56.65161133 C66.60082508 62.20993116 64.37748065 67.77669306 62.16333008 73.34741211 C61.83715195 74.16727097 61.51097382 74.98712982 61.1749115 75.83183289 C59.93830816 78.94023376 58.70176217 82.04865084 57.46890259 85.15853882 C56.63631894 87.25759589 55.80059331 89.3553749 54.96411133 91.45288086 C54.49739014 92.62753906 54.03066895 93.80219727 53.54980469 95.01245117 C52.43676758 97.62475586 52.43676758 97.62475586 51.43676758 98.62475586 C47.21973838 99.10206654 42.98893828 99.18295611 38.74926758 99.31225586 C37.56397461 99.3915332 36.37868164 99.47081055 35.1574707 99.55249023 C26.6632846 99.75734161 26.6632846 99.75734161 23.44433594 96.78491211 C21.78391888 94.13633532 20.59316963 91.52835404 19.43676758 88.62475586 C19.03095459 87.70170654 18.6251416 86.77865723 18.20703125 85.82763672 C16.85600971 82.66039214 15.61012273 79.46365828 14.37426758 76.24975586 C13.35117298 73.62699217 12.32161346 71.00677785 11.29223633 68.38647461 C11.00796783 67.66043533 10.72369934 66.93439606 10.43081665 66.18635559 C7.68104206 59.18746515 4.83622566 52.22839629 1.98754883 45.26928711 C0.53829185 41.71928905 -0.9104142 38.16906649 -2.35910034 34.61883545 C-3.3275128 32.25025006 -4.29863879 29.88277228 -5.27249146 27.51641846 C-6.65343567 24.15859657 -8.0234436 20.79649684 -9.39135742 17.43334961 C-9.81265427 16.41682816 -10.23395111 15.4003067 -10.66801453 14.35298157 C-11.05012589 13.40811386 -11.43223724 12.46324615 -11.82592773 11.48974609 C-12.16279602 10.66756088 -12.49966431 9.84537567 -12.84674072 8.99827576 C-13.62949507 6.40524778 -13.76731114 4.31878786 -13.56323242 1.62475586 C-10.89387553 -1.04460103 -3.78913863 0.08748562 0 0 Z " fill="#000202" transform="translate(206.563232421875,18.375244140625)"/>
<path d="M0 0 C7.26 0 14.52 0 22 0 C29.38680907 7.87461722 29.38680907 7.87461722 31.33203125 11.4765625 C33.92570921 16.00508353 36.98467007 19.92989677 40.3125 23.9375 C44.61362082 29.23876096 48.80734869 34.60944832 53 40 C53.33 26.8 53.66 13.6 54 0 C61.59 0 69.18 0 77 0 C77 26.73 77 53.46 77 81 C56 81 56 81 50.0625 75.125 C48.62792969 73.09692383 48.62792969 73.09692383 47.609375 71.26953125 C44.75019783 66.44832818 41.31079979 62.18132095 37.8125 57.8125 C32.7083644 51.31953903 27.86238708 44.68578223 23 38 C22.67 52.19 22.34 66.38 22 81 C14.74 81 7.48 81 0 81 C0 54.27 0 27.54 0 0 Z " fill="#000102" transform="translate(372,23)"/>
<path d="M0 0 C7.26 0 14.52 0 22 0 C26.00753671 7.76597608 29.4742392 15.6776352 32.8125 23.75 C33.94655552 26.47973345 35.08269895 29.20859655 36.21875 31.9375 C36.51618607 32.65299011 36.81362213 33.36848022 37.12007141 34.10565186 C39.5212903 39.87389048 41.95954555 45.62593009 44.40625 51.375 C45.51210496 53.97909099 46.61758381 56.58334138 47.72299194 59.18762207 C48.44812886 60.89304759 49.17503214 62.59772317 49.90371704 64.30163574 C50.9263469 66.69385027 51.94235117 69.08877994 52.95703125 71.484375 C53.42012695 72.56041992 53.42012695 72.56041992 53.89257812 73.65820312 C55.13461871 76.60522342 56 78.76716514 56 82 C48.08 82 40.16 82 32 82 C27 70.25 27 70.25 27 68 C16.44 68 5.88 68 -5 68 C-5.99 71.3 -6.98 74.6 -8 78 C-8.66 79.32 -9.32 80.64 -10 82 C-17.92 82 -25.84 82 -34 82 C-30.62486682 71.87460047 -30.62486682 71.87460047 -29.10571289 68.29174805 C-28.76388977 67.48096802 -28.42206665 66.67018799 -28.06988525 65.83483887 C-27.70779968 64.98570923 -27.34571411 64.13657959 -26.97265625 63.26171875 C-26.58712585 62.35015015 -26.20159546 61.43858154 -25.80438232 60.49938965 C-24.56044009 57.56065953 -23.31158902 54.62404572 -22.0625 51.6875 C-21.20573269 49.66652452 -20.3492072 47.6454465 -19.49291992 45.62426758 C-13.03774611 30.39802566 -6.5430253 15.18869946 0 0 Z " fill="#000202" transform="translate(150,22)"/>
<path d="M0 0 C0.91644287 0.00523682 1.83288574 0.01047363 2.77709961 0.01586914 C4.26113281 0.02070313 4.26113281 0.02070313 5.77514648 0.02563477 C6.81606445 0.03401367 7.85698242 0.04239258 8.92944336 0.05102539 C10.49662109 0.05779297 10.49662109 0.05779297 12.09545898 0.06469727 C14.68600996 0.07652627 17.27644895 0.0930085 19.86694336 0.11352539 C24.70684728 10.34882477 29.1295929 20.73105857 33.49194336 31.17602539 C34.89930636 34.53863062 36.30840226 37.90050606 37.71850586 41.26196289 C38.06778137 42.09485336 38.41705688 42.92774384 38.7769165 43.78587341 C41.01327674 49.10909713 43.28077616 54.41781135 45.57788086 59.71508789 C45.8614444 60.37018845 46.14500793 61.025289 46.43716431 61.70024109 C47.75543819 64.74414344 49.07941904 67.78522156 50.41235352 70.82275391 C50.87174316 71.88163818 51.33113281 72.94052246 51.80444336 74.03149414 C52.2053418 74.94697021 52.60624023 75.86244629 53.01928711 76.80566406 C53.86694336 79.11352539 53.86694336 79.11352539 53.86694336 82.11352539 C45.94694336 82.11352539 38.02694336 82.11352539 29.86694336 82.11352539 C24.86694336 70.36352539 24.86694336 70.36352539 24.86694336 68.11352539 C9.02694336 68.60852539 9.02694336 68.60852539 -7.13305664 69.11352539 C-8.78305664 73.40352539 -10.43305664 77.69352539 -12.13305664 82.11352539 C-20.05305664 82.11352539 -27.97305664 82.11352539 -36.13305664 82.11352539 C-35.40880566 78.49227048 -34.78389633 75.96793413 -33.37402344 72.69165039 C-33.0120285 71.84371918 -32.65003357 70.99578796 -32.27706909 70.12216187 C-31.88278717 69.21181183 -31.48850525 68.30146179 -31.08227539 67.36352539 C-30.67171906 66.40459381 -30.26116272 65.44566223 -29.83816528 64.45767212 C-28.50312427 61.34115307 -27.16180114 58.227379 -25.82055664 55.11352539 C-23.99257353 50.85155742 -22.16804345 46.58811571 -20.34399414 42.32446289 C-19.89383438 41.27326263 -19.44367462 40.22206238 -18.97987366 39.13900757 C-14.71803757 29.17364805 -10.56631351 19.16500898 -6.47363281 9.12915039 C-6.03768799 8.06438477 -5.60174316 6.99961914 -5.15258789 5.90258789 C-4.78238525 4.99202637 -4.41218262 4.08146484 -4.03076172 3.14331055 C-2.70423513 0.14392461 -2.70423513 0.14392461 0 0 Z " fill="#000202" transform="translate(493.133056640625,21.886474609375)"/>
<path d="M0 0 C7.59 0 15.18 0 23 0 C41.20831677 43.04140325 41.20831677 43.04140325 49.70407104 63.39440918 C50.35965922 64.9647285 51.01584822 66.53479711 51.67263794 68.10461426 C52.57917223 70.27210555 53.48334869 72.44056337 54.38671875 74.609375 C54.89420654 75.82592773 55.40169434 77.04248047 55.92456055 78.29589844 C57 81 57 81 57 82 C48.75 82 40.5 82 32 82 C30.35 77.71 28.7 73.42 27 69 C16.44 68.67 5.88 68.34 -5 68 C-5.99 71.3 -6.98 74.6 -8 78 C-8.66 79.32 -9.32 80.64 -10 82 C-17.92 82 -25.84 82 -34 82 C-29.97322159 71.25920159 -25.55365495 60.70886486 -21.07119751 50.15194702 C-18.94956421 45.15513924 -16.83461282 40.15550328 -14.71875 35.15625 C-14.30695999 34.18382858 -13.89516998 33.21140717 -13.47090149 32.20951843 C-8.93417532 21.49207994 -4.46062409 10.7493728 0 0 Z " fill="#000202" transform="translate(307,22)"/>
<path d="M0 0 C7.26 0 14.52 0 22 0 C22.33 12.54 22.66 25.08 23 38 C30.03291675 28.08612939 37.00157296 18.14107268 43.80932617 8.07104492 C44.5882019 6.92406128 44.5882019 6.92406128 45.3828125 5.75390625 C45.84059082 5.07658447 46.29836914 4.3992627 46.77001953 3.70141602 C48 2 48 2 50 0 C52.70556641 -0.22705078 52.70556641 -0.22705078 56.1015625 -0.1953125 C57.31328125 -0.18886719 58.525 -0.18242187 59.7734375 -0.17578125 C61.04445312 -0.15902344 62.31546875 -0.14226563 63.625 -0.125 C64.90375 -0.11597656 66.1825 -0.10695313 67.5 -0.09765625 C70.66685167 -0.07402303 73.83333424 -0.04107629 77 0 C71.90822762 8.12566673 66.60016701 16.08520678 61.1875 24 C60.41715716 25.1287967 59.64697417 26.25770251 58.87695312 27.38671875 C57.47763356 29.43806432 56.07757828 31.48890839 54.67651367 33.5390625 C51.86349183 37.11693157 51.86349183 37.11693157 51.16772461 41.36889648 C52.12952196 44.40946264 53.46486162 46.50189901 55.31640625 49.09765625 C55.99509766 50.05905518 56.67378906 51.0204541 57.37304688 52.01098633 C58.09556641 53.01798584 58.81808594 54.02498535 59.5625 55.0625 C61.02282186 57.12972359 62.48246417 59.1974274 63.94140625 61.265625 C64.64281738 62.25498047 65.34422852 63.24433594 66.06689453 64.26367188 C68.41613879 67.58904819 70.72352062 70.93688862 73 74.3125 C73.598125 75.19550781 74.19625 76.07851562 74.8125 76.98828125 C76 79 76 79 76 81 C53.62688262 84.14705179 53.62688262 84.14705179 46.54052734 79.32714844 C42.23442432 74.76920834 39.35978195 69.35980481 36.50732422 63.81542969 C34.54768884 60.15515835 32.26849384 56.77467213 29.91625977 53.35791016 C27.56576279 49.93580184 25.28998001 46.4628966 23 43 C22.67 55.54 22.34 68.08 22 81 C14.74 81 7.48 81 0 81 C0 54.27 0 27.54 0 0 Z " fill="#000101" transform="translate(37,23)"/>
<path d="M0 0 C3.8865306 3.57190669 6.83425372 8.1993359 8.1875 13.3125 C6.91396594 17.94732886 4.3085504 20.78078508 1.1875 24.3125 C1.93 24.6425 2.6725 24.9725 3.4375 25.3125 C7.64158679 28.37001767 9.67438929 32.484813 10.60296631 37.6020813 C10.81042819 40.08645822 10.89843314 42.54233477 10.9296875 45.03515625 C10.95677292 46.39162514 10.95677292 46.39162514 10.98440552 47.77549744 C11.01325317 49.67547512 11.03114469 51.57564793 11.03857422 53.47583008 C11.06248633 56.37334349 11.16102754 59.26247137 11.26171875 62.15820312 C11.49836867 75.54280386 11.49836867 75.54280386 8.13891602 80.078125 C5.54593928 81.9505442 3.16775431 83.17091952 0.1875 84.3125 C-0.78268066 84.78200073 -0.78268066 84.78200073 -1.77246094 85.26098633 C-3.45703125 86.0546875 -3.45703125 86.0546875 -6.625 87.1875 C-8.21248047 87.77144531 -8.21248047 87.77144531 -9.83203125 88.3671875 C-22.51879095 92.39103527 -38.81729507 92.1731709 -50.8125 86.3125 C-52.12927734 85.67634766 -52.12927734 85.67634766 -53.47265625 85.02734375 C-67.02413169 77.68951617 -74.74247362 63.42694755 -79.875 49.3125 C-82.98737029 36.79906603 -81.51692666 22.78046799 -75.26953125 11.53515625 C-68.1837194 0.75239909 -58.3199004 -6.35219323 -45.8125 -9.6875 C-29.85984028 -12.81547249 -13.06046112 -9.92146617 0 0 Z M-68.1796875 8.26171875 C-76.70701642 18.97188067 -79.13577136 30.90380141 -77.8125 44.3125 C-75.20589457 56.83044944 -67.24379062 66.31898529 -56.8125 73.3125 C-45.01349563 79.90953851 -30.27978831 80.078424 -17.4375 76.75 C-10.75182961 74.58125278 -2.87255315 71.37255315 2.1875 66.3125 C2.27607875 63.57379758 2.30280707 60.85975017 2.28515625 58.12109375 C2.28414917 57.39474731 2.28314209 56.66840088 2.28210449 55.92004395 C2.27685716 53.19667999 2.262896 50.47333847 2.25 47.75 C2.229375 41.665625 2.20875 35.58125 2.1875 29.3125 C-10.3525 29.3125 -22.8925 29.3125 -35.8125 29.3125 C-35.8125 34.5925 -35.8125 39.8725 -35.8125 45.3125 C-30.2025 45.3125 -24.5925 45.3125 -18.8125 45.3125 C-18.8125 48.9425 -18.8125 52.5725 -18.8125 56.3125 C-27.54385212 57.94060175 -36.9588029 59.057442 -44.8125 54.3125 C-48.87154019 50.99146712 -51.60976624 47.44975814 -52.8125 42.3125 C-53.67180191 33.66062458 -52.78197358 27.8179082 -48 20.5625 C-43.52108399 15.95561496 -39.66952318 15.10352527 -33.375 14.9375 C-25.68742839 15.12116212 -21.33451724 17.39928966 -14.8125 21.3125 C-14.1525 21.3125 -13.4925 21.3125 -12.8125 21.3125 C-11.27158595 19.61661736 -9.80326703 17.85428328 -8.375 16.0625 C-7.59253906 15.08796875 -6.81007813 14.1134375 -6.00390625 13.109375 C-5.28074219 12.18640625 -4.55757812 11.2634375 -3.8125 10.3125 C-3.22339844 9.57515625 -2.63429688 8.8378125 -2.02734375 8.078125 C-0.62355393 6.39508915 -0.62355393 6.39508915 -0.8125 4.3125 C-9.309127 -3.73569391 -22.60267096 -7.13972981 -34.0625 -7.25 C-47.59468255 -6.75960749 -58.84918962 -1.52445461 -68.1796875 8.26171875 Z M-39.8125 30.3125 C-40.68382599 31.38693915 -41.50999567 32.49822794 -42.3125 33.625 C-42.97765625 34.54732422 -42.97765625 34.54732422 -43.65625 35.48828125 C-46.34527209 39.73075867 -46.57769878 44.44865031 -45.8125 49.3125 C-43.05022878 52.66070754 -41.25775847 53.22490817 -37 54.0625 C-35.4221875 54.18625 -35.4221875 54.18625 -33.8125 54.3125 C-33.8125 52.6625 -33.8125 51.0125 -33.8125 49.3125 C-35.1325 48.6525 -36.4525 47.9925 -37.8125 47.3125 C-38.1425 41.7025 -38.4725 36.0925 -38.8125 30.3125 C-39.1425 30.3125 -39.4725 30.3125 -39.8125 30.3125 Z " fill="#00C8FA" transform="translate(624.8125,27.6875)"/>
<path d="M0 0 C1.86205078 -0.0937793 1.86205078 -0.0937793 3.76171875 -0.18945312 C12.7401923 -0.34892009 12.7401923 -0.34892009 15.68945312 2.31298828 C16.97786927 4.36286764 17.91605361 6.29445339 18.75 8.5625 C19.245 9.5525 19.245 9.5525 19.75 10.5625 C19.83372659 12.08398326 19.85730027 13.60905778 19.84765625 15.1328125 C19.84443359 16.02871094 19.84121094 16.92460938 19.83789062 17.84765625 C19.82532227 19.25337891 19.82532227 19.25337891 19.8125 20.6875 C19.80798828 21.63238281 19.80347656 22.57726562 19.79882812 23.55078125 C19.78702375 25.8880477 19.76908799 28.22528169 19.75 30.5625 C25.36 30.5625 30.97 30.5625 36.75 30.5625 C36.72679687 28.56445312 36.70359375 26.56640625 36.6796875 24.5078125 C36.66578264 22.57503761 36.65194794 20.64226148 36.64013672 18.70947266 C36.62511893 16.7033864 36.59971019 14.69738676 36.57421875 12.69140625 C36.56455078 10.80615234 36.56455078 10.80615234 36.5546875 8.8828125 C36.53897705 7.13895264 36.53897705 7.13895264 36.52294922 5.35986328 C36.75 2.5625 36.75 2.5625 38.75 0.5625 C41.45556641 0.33544922 41.45556641 0.33544922 44.8515625 0.3671875 C46.06328125 0.37363281 47.275 0.38007813 48.5234375 0.38671875 C49.79445313 0.40347656 51.06546875 0.42023437 52.375 0.4375 C53.65375 0.44652344 54.9325 0.45554687 56.25 0.46484375 C59.41686082 0.48847704 62.58330743 0.52311042 65.75 0.5625 C73.02574576 10.25238752 72.57080082 19.61711272 72.40625 31.16015625 C72.40012455 33.04535823 72.39638012 34.93056929 72.39489746 36.81578064 C72.38574223 40.74367548 72.3570744 44.6707385 72.3125 48.59838867 C72.25558626 53.63914463 72.23403664 58.67925285 72.2251358 63.72029972 C72.21684165 67.60213205 72.1972245 71.48383314 72.17338562 75.36559868 C72.16198056 77.22558991 72.15246302 79.0855937 72.14485168 80.94560432 C72.13115691 83.53305654 72.10391773 86.11998846 72.07226562 88.70727539 C72.07002991 89.47761612 72.06779419 90.24795685 72.06549072 91.04164124 C71.9794152 96.3330848 71.9794152 96.3330848 69.75 98.5625 C65.5025869 99.15577126 61.22134505 99.11851699 56.9375 99.1875 C55.74833984 99.24550781 54.55917969 99.30351563 53.33398438 99.36328125 C44.77685929 99.48820278 44.77685929 99.48820278 41.88134766 96.87792969 C40.57366037 94.80962429 39.63706453 92.8393252 38.75 90.5625 C38.38688721 89.90942871 38.02377441 89.25635742 37.6496582 88.58349609 C36.6023103 86.23072921 36.52001122 84.58166974 36.5546875 82.015625 C36.56113281 81.17128906 36.56757812 80.32695313 36.57421875 79.45703125 C36.59097656 78.58433594 36.60773437 77.71164063 36.625 76.8125 C36.63402344 75.92433594 36.64304687 75.03617187 36.65234375 74.12109375 C36.6758525 71.93477989 36.71172189 69.74860516 36.75 67.5625 C31.14 67.5625 25.53 67.5625 19.75 67.5625 C19.76160156 69.71652344 19.77320313 71.87054688 19.78515625 74.08984375 C19.79294737 76.16821139 19.79902381 78.24657743 19.80493164 80.32495117 C19.80997101 81.77320073 19.81680253 83.22144517 19.82543945 84.66967773 C19.83752247 86.74724588 19.84323211 88.82474697 19.84765625 90.90234375 C19.85289307 92.15394287 19.85812988 93.40554199 19.86352539 94.69506836 C19.75 97.5625 19.75 97.5625 18.75 98.5625 C14.46508535 98.84400942 10.16805904 98.79432832 5.875 98.8125 C4.66457031 98.833125 3.45414063 98.85375 2.20703125 98.875 C1.04816406 98.88015625 -0.11070312 98.8853125 -1.3046875 98.890625 C-2.37187012 98.8999707 -3.43905273 98.90931641 -4.53857422 98.91894531 C-7.72109068 98.5005702 -8.21564393 97.92961548 -10.25 95.5625 C-13.88957111 90.08137757 -14.82724124 85.25563559 -14.7199707 78.77563477 C-14.7221611 77.93726578 -14.7243515 77.09889679 -14.72660828 76.23512268 C-14.72890188 73.49096952 -14.70277273 70.74791446 -14.67578125 68.00390625 C-14.67085377 66.08959798 -14.66755722 64.17528489 -14.66581726 62.26097107 C-14.65820098 58.26407299 -14.63770419 54.26753607 -14.60668945 50.27075195 C-14.56692825 45.13685458 -14.54904819 40.00319072 -14.53938007 34.86915684 C-14.5294358 29.97654149 -14.50954138 25.08398358 -14.48828125 20.19140625 C-14.48318763 18.78518603 -14.48318763 18.78518603 -14.4779911 17.35055733 C-14.46647417 14.71483537 -14.44796721 12.07926515 -14.42700195 9.44360352 C-14.42431305 8.65560364 -14.42162415 7.86760376 -14.41885376 7.0557251 C-14.32479284 -2.32276433 -8.06404492 0.17782253 0 0 Z M-11.25 4.5625 C-11.25 31.2925 -11.25 58.0225 -11.25 85.5625 C-3.66 85.5625 3.93 85.5625 11.75 85.5625 C11.75 75.3325 11.75 65.1025 11.75 54.5625 C21.32 54.5625 30.89 54.5625 40.75 54.5625 C40.75 64.7925 40.75 75.0225 40.75 85.5625 C48.01 85.5625 55.27 85.5625 62.75 85.5625 C62.75 58.8325 62.75 32.1025 62.75 4.5625 C55.49 4.5625 48.23 4.5625 40.75 4.5625 C40.75 14.4625 40.75 24.3625 40.75 34.5625 C31.18 34.5625 21.61 34.5625 11.75 34.5625 C11.75 24.6625 11.75 14.7625 11.75 4.5625 C4.16 4.5625 -3.43 4.5625 -11.25 4.5625 Z " fill="#00C5F7" transform="translate(650.25,18.4375)"/>
<path d="M0 0 C1.40795678 -0.04158659 2.81547897 -0.10289249 4.22167969 -0.18457031 C15.66558812 -0.83839239 15.66558812 -0.83839239 19.52563477 2.3503418 C21.24789431 5.0362599 22.33749841 7.62756388 23.43676758 10.62475586 C23.92072998 11.82430908 24.40469238 13.0238623 24.90332031 14.25976562 C26.47300052 18.22219025 27.8969668 22.23000096 29.31176758 26.24975586 C29.81339843 27.64984455 30.31599652 29.04958708 30.81958008 30.44897461 C32.03646028 33.83699319 33.24027466 37.22947562 34.43676758 40.62475586 C34.85563232 39.44856689 35.27449707 38.27237793 35.70605469 37.06054688 C37.25560583 32.71170482 38.80887033 28.36419698 40.36328125 24.01708984 C41.03650236 22.13268852 41.70870541 20.24792318 42.37988281 18.36279297 C43.34280522 15.65879313 44.30933867 12.95610833 45.27661133 10.25366211 C45.57768295 9.405746 45.87875458 8.5578299 46.18894958 7.68421936 C48.32289587 1.73862757 48.32289587 1.73862757 49.43676758 0.62475586 C51.65532022 0.53692044 53.87665254 0.51780977 56.09692383 0.52709961 C57.09362343 0.52922203 57.09362343 0.52922203 58.11045837 0.53138733 C60.24010657 0.53700068 62.36965097 0.54955532 64.49926758 0.56225586 C65.94002127 0.56726915 67.38077661 0.57183235 68.8215332 0.57592773 C72.3599786 0.58697441 75.89836297 0.60424794 79.43676758 0.62475586 C80.47792181 2.32078102 81.49395136 4.03224523 82.49926758 5.74975586 C83.06774414 6.70108398 83.6362207 7.65241211 84.22192383 8.63256836 C86.77659043 14.9247697 83.31292138 20.90308811 80.89379883 26.82397461 C80.35289108 28.16891747 80.35289108 28.16891747 79.80105591 29.54103088 C78.62279591 32.46709612 77.43613213 35.38967148 76.24926758 38.31225586 C75.43496375 40.32927314 74.62124767 42.34652781 73.80810547 44.36401367 C72.15641672 48.46083928 70.50194885 52.55652737 68.84594727 56.65161133 C66.60082508 62.20993116 64.37748065 67.77669306 62.16333008 73.34741211 C61.83715195 74.16727097 61.51097382 74.98712982 61.1749115 75.83183289 C59.93830816 78.94023376 58.70176217 82.04865084 57.46890259 85.15853882 C56.63631894 87.25759589 55.80059331 89.3553749 54.96411133 91.45288086 C54.49739014 92.62753906 54.03066895 93.80219727 53.54980469 95.01245117 C52.43676758 97.62475586 52.43676758 97.62475586 51.43676758 98.62475586 C47.21973838 99.10206654 42.98893828 99.18295611 38.74926758 99.31225586 C37.56397461 99.3915332 36.37868164 99.47081055 35.1574707 99.55249023 C26.6632846 99.75734161 26.6632846 99.75734161 23.44433594 96.78491211 C21.78391888 94.13633532 20.59316963 91.52835404 19.43676758 88.62475586 C19.03095459 87.70170654 18.6251416 86.77865723 18.20703125 85.82763672 C16.85600971 82.66039214 15.61012273 79.46365828 14.37426758 76.24975586 C13.35117298 73.62699217 12.32161346 71.00677785 11.29223633 68.38647461 C11.00796783 67.66043533 10.72369934 66.93439606 10.43081665 66.18635559 C7.68104206 59.18746515 4.83622566 52.22839629 1.98754883 45.26928711 C0.53829185 41.71928905 -0.9104142 38.16906649 -2.35910034 34.61883545 C-3.3275128 32.25025006 -4.29863879 29.88277228 -5.27249146 27.51641846 C-6.65343567 24.15859657 -8.0234436 20.79649684 -9.39135742 17.43334961 C-9.81265427 16.41682816 -10.23395111 15.4003067 -10.66801453 14.35298157 C-11.05012589 13.40811386 -11.43223724 12.46324615 -11.82592773 11.48974609 C-12.16279602 10.66756088 -12.49966431 9.84537567 -12.84674072 8.99827576 C-13.62949507 6.40524778 -13.76731114 4.31878786 -13.56323242 1.62475586 C-10.89387553 -1.04460103 -3.78913863 0.08748562 0 0 Z M-9.56323242 4.62475586 C-8.80080076 8.43691417 -7.99527796 11.35230016 -6.57299805 14.89208984 C-6.16166626 15.92184433 -5.75033447 16.95159882 -5.32653809 18.01255798 C-4.87870972 19.12079422 -4.43088135 20.22903046 -3.96948242 21.37084961 C-3.50392944 22.53238052 -3.03837646 23.69391144 -2.55871582 24.89064026 C-1.31585814 27.98891245 -0.06921444 31.08560675 1.17919922 34.18164062 C2.41436905 37.24787111 3.64395232 40.31634057 4.87426758 43.38452148 C10.66935007 57.82235798 16.53077596 72.2319519 22.43676758 86.62475586 C29.69676758 86.62475586 36.95676758 86.62475586 44.43676758 86.62475586 C45.09161133 84.93995117 45.74645508 83.25514648 46.42114258 81.51928711 C51.34463661 68.89655835 56.35053484 56.31921443 61.56176758 43.81225586 C65.34809747 34.71720664 69.08204153 25.60598772 72.68676758 16.43725586 C73.26128662 14.98452271 73.26128662 14.98452271 73.84741211 13.50244141 C74.19143066 12.62112549 74.53544922 11.73980957 74.88989258 10.83178711 C75.19056641 10.06326416 75.49124023 9.29474121 75.80102539 8.50292969 C76.5436409 6.63949535 76.5436409 6.63949535 76.43676758 4.62475586 C68.18676758 4.62475586 59.93676758 4.62475586 51.43676758 4.62475586 C44.02109649 24.72364252 44.02109649 24.72364252 36.74926758 44.87475586 C36.50611816 45.55143311 36.26296875 46.22811035 36.01245117 46.92529297 C34.82013781 50.19544023 34.82013781 50.19544023 34.43676758 53.62475586 C33.77676758 53.62475586 33.11676758 53.62475586 32.43676758 53.62475586 C32.10805664 51.85938477 32.10805664 51.85938477 31.77270508 50.05834961 C30.21280699 43.04977412 27.5704309 36.39760102 25.06176758 29.68725586 C24.57428675 28.36777963 24.08730452 27.04811909 23.60083008 25.72827148 C20.98098866 18.64796721 18.24178152 11.6372907 15.43676758 4.62475586 C7.18676758 4.62475586 -1.06323242 4.62475586 -9.56323242 4.62475586 Z " fill="#00C7F9" transform="translate(206.563232421875,18.375244140625)"/>
<path d="M0 0 C6.249375 -0.0928125 6.249375 -0.0928125 12.625 -0.1875 C13.92775879 -0.21481201 15.23051758 -0.24212402 16.57275391 -0.27026367 C27.27815601 -0.34733461 27.27815601 -0.34733461 32 3 C35.4057206 6.74629266 35.57068743 10.68223441 35.41796875 15.5546875 C34.71480568 19.66852006 33.14238433 21.27660024 30 24 C27.32421875 24.65234375 27.32421875 24.65234375 25 25 C25.36351563 25.54527344 25.72703125 26.09054688 26.1015625 26.65234375 C31.55078125 34.82617188 31.55078125 34.82617188 37 43 C31.91914995 43.643214 31.91914995 43.643214 29 43 C26.7013398 40.86692126 25.30955185 38.26239567 23.75 35.5625 C20.23064901 29.95590073 20.23064901 29.95590073 14.62890625 26.78125 C10.97807886 26.45856301 10.97807886 26.45856301 6 27 C6 32.28 6 37.56 6 43 C4.02 43 2.04 43 0 43 C0 28.81 0 14.62 0 0 Z M6 5 C6 10.28 6 15.56 6 21 C8.89740622 21.13539281 11.78845621 21.23426829 14.6875 21.3125 C15.50412109 21.35439453 16.32074219 21.39628906 17.16210938 21.43945312 C21.59199102 21.52912684 23.41323088 21.44835179 27.046875 18.671875 C29.20660534 16.12357388 29.20660534 16.12357388 29.5625 12.9375 C28.88178485 9.38265419 27.79927541 8.222954 25 6 C21.69005287 4.34502644 18.00877 4.89915665 14.375 4.9375 C13.17230469 4.94426758 13.17230469 4.94426758 11.9453125 4.95117188 C9.96350994 4.96296832 7.98174567 4.98090395 6 5 Z " fill="#000000" transform="translate(95,142)"/>
<path d="M0 0 C6 0 6 0 7.88427734 1.44677734 C8.4045752 2.1114502 8.92487305 2.77612305 9.4609375 3.4609375 C10.04713867 4.19280273 10.63333984 4.92466797 11.23730469 5.67871094 C12.10983887 6.82774902 12.10983887 6.82774902 13 8 C13.83772949 9.06782715 13.83772949 9.06782715 14.69238281 10.15722656 C16.35818886 12.29757653 17.99520274 14.4571357 19.625 16.625 C20.72007301 18.07648829 21.8164066 19.52702648 22.9140625 20.9765625 C23.6248999 21.92136475 23.6248999 21.92136475 24.35009766 22.88525391 C26.50127854 25.64250883 28.76118134 28.31341761 31 31 C31.33 20.77 31.66 10.54 32 0 C33.65 0 35.3 0 37 0 C37 14.19 37 28.38 37 43 C32 43 32 43 29.78125 40.97265625 C29.0284375 40.01230469 28.275625 39.05195313 27.5 38.0625 C26.87738281 37.28060303 26.87738281 37.28060303 26.2421875 36.48291016 C24.80871609 34.66958979 23.40304693 32.83695556 22 31 C21.44054687 30.27248535 20.88109375 29.5449707 20.3046875 28.79541016 C17.95743871 25.74178941 15.61311796 22.68633024 13.29101562 19.61352539 C12.76185547 18.91348389 12.23269531 18.21344238 11.6875 17.4921875 C11.21699219 16.86683105 10.74648437 16.24147461 10.26171875 15.59716797 C8.94765819 13.86996743 8.94765819 13.86996743 7 12 C6.67 22.23 6.34 32.46 6 43 C4.02 43 2.04 43 0 43 C0 28.81 0 14.62 0 0 Z " fill="#000000" transform="translate(212,142)"/>
<path d="M0 0 C3.63 -0.0825 7.26 -0.165 11 -0.25 C12.12792969 -0.28641602 13.25585938 -0.32283203 14.41796875 -0.36035156 C21.98697621 -0.44308754 27.12307336 0.85654597 33.0234375 5.640625 C37.86888226 11.41034534 39.30534652 16.493632 38.9375 24 C38.11680099 30.07130744 35.86832134 34.75230959 30.99609375 38.5703125 C26.29351691 41.60143938 22.54924615 43.13034246 16.89453125 43.09765625 C16.00870361 43.09515869 15.12287598 43.09266113 14.21020508 43.09008789 C13.0889624 43.08098389 11.96771973 43.07187988 10.8125 43.0625 C7.244375 43.041875 3.67625 43.02125 0 43 C0 28.81 0 14.62 0 0 Z M6 5 C6 15.89 6 26.78 6 38 C19.42201971 38.32989282 19.42201971 38.32989282 29.375 31.8125 C31.9300292 27.39033408 33.42559596 23.00099712 32.6953125 17.8515625 C31.01902062 12.45017754 27.67362777 9.06972369 23 6 C17.61483519 4.20494506 11.67646212 5 6 5 Z " fill="#000000" transform="translate(680,142)"/>
<path d="M0 0 C3.980625 -0.0825 7.96125 -0.165 12.0625 -0.25 C13.30394775 -0.28641602 14.54539551 -0.32283203 15.82446289 -0.36035156 C22.42473911 -0.42644494 26.7500233 -0.16503006 32 4 C34.97440225 8.10319202 34.74875778 13.14835517 34 18 C32.64468168 20.79464397 31.43129281 21.89287957 29 24 C26.32421875 24.65234375 26.32421875 24.65234375 24 25 C24.69867188 25.96421875 25.39734375 26.9284375 26.1171875 27.921875 C27.03660959 29.19780769 27.95587205 30.47385541 28.875 31.75 C29.56529297 32.70132813 29.56529297 32.70132813 30.26953125 33.671875 C32.43662041 36.68695557 34.49857822 39.58297113 36 43 C30.91914995 43.643214 30.91914995 43.643214 28 43 C25.7013398 40.86692126 24.30955185 38.26239567 22.75 35.5625 C19.23064901 29.95590073 19.23064901 29.95590073 13.62890625 26.78125 C9.97807886 26.45856301 9.97807886 26.45856301 5 27 C5 32.28 5 37.56 5 43 C3.35 43 1.7 43 0 43 C0 28.81 0 14.62 0 0 Z M5 5 C5 10.28 5 15.56 5 21 C7.89684158 21.10829314 10.78961019 21.18743954 13.6875 21.25 C14.50412109 21.28351563 15.32074219 21.31703125 16.16210938 21.3515625 C20.28443967 21.41832089 22.43162779 21.35072904 26.01953125 19.13671875 C28.34303973 16.62989599 29 15.41672294 29 12 C27.82227488 9.3346221 26.80537034 7.5844458 24.43359375 5.86328125 C20.73162185 4.55006168 17.14397358 4.79105032 13.25 4.875 C12.06083984 4.88853516 12.06083984 4.88853516 10.84765625 4.90234375 C8.89830719 4.92582988 6.94911425 4.96169863 5 5 Z " fill="#000000" transform="translate(445,142)"/>
<path d="M0 0 C10.56 0 21.12 0 32 0 C32 1.65 32 3.3 32 5 C23.42 5 14.84 5 6 5 C6 9.62 6 14.24 6 19 C13.59 19 21.18 19 29 19 C29 20.65 29 22.3 29 24 C21.41 24 13.82 24 6 24 C6 28.62 6 33.24 6 38 C14.58 38 23.16 38 32 38 C32 39.65 32 41.3 32 43 C21.44 43 10.88 43 0 43 C0 28.81 0 14.62 0 0 Z " fill="#000000" transform="translate(501,142)"/>
<path d="M0 0 C1.98 0 3.96 0 6 0 C10.6049788 9.02918183 14.96203104 18.13180683 19.08227539 27.39135742 C19.9579098 29.35834775 20.83901242 31.32282724 21.72070312 33.28710938 C26 42.85817284 26 42.85817284 26 44 C23.69 44 21.38 44 19 44 C18.32591692 42.73308493 17.66099503 41.46129251 17 40.1875 C16.62875 39.47980469 16.2575 38.77210938 15.875 38.04296875 C15 36 15 36 15 33 C7.41 33.33 -0.18 33.66 -8 34 C-9.65 37.3 -11.3 40.6 -13 44 C-14.98 44 -16.96 44 -19 44 C-17.47898289 39.08642621 -15.49956848 34.51749434 -13.33984375 29.86328125 C-12.9899086 29.10202438 -12.63997345 28.34076752 -12.2794342 27.55644226 C-11.16839184 25.14042997 -10.05323357 22.72634899 -8.9375 20.3125 C-7.81874653 17.88769262 -6.70090421 15.46247561 -5.58485413 13.03642273 C-4.89208756 11.53092867 -4.19767965 10.02618856 -3.50144958 8.52229309 C-2.20340559 5.70477173 -0.9818871 2.94566131 0 0 Z M3 9 C1.65929682 11.60060504 0.32726646 14.20504916 -1 16.8125 C-1.3815625 17.55048828 -1.763125 18.28847656 -2.15625 19.04882812 C-2.5171875 19.76103516 -2.878125 20.47324219 -3.25 21.20703125 C-3.58515625 21.8616333 -3.9203125 22.51623535 -4.265625 23.19067383 C-5.18804263 25.13784549 -5.18804263 25.13784549 -5 28 C0.61 28 6.22 28 12 28 C11.236875 25.97875 10.47375 23.9575 9.6875 21.875 C9.04361328 20.16957031 9.04361328 20.16957031 8.38671875 18.4296875 C7.07627928 15.18865692 5.60780709 12.10245474 4 9 C3.67 9 3.34 9 3 9 Z " fill="#000000" transform="translate(167,141)"/>
<path d="M0 0 C10.23 0 20.46 0 31 0 C31 1.65 31 3.3 31 5 C22.42 5 13.84 5 5 5 C5 9.62 5 14.24 5 19 C12.92 19 20.84 19 29 19 C29 20.65 29 22.3 29 24 C21.08 24 13.16 24 5 24 C5 28.62 5 33.24 5 38 C13.91 38 22.82 38 32 38 C32 39.65 32 41.3 32 43 C21.44 43 10.88 43 0 43 C0 28.81 0 14.62 0 0 Z " fill="#000000" transform="translate(273,142)"/>
<path d="M0 0 C1.98 0 3.96 0 6 0 C6 6.27 6 12.54 6 19 C13.92 19 21.84 19 30 19 C30 12.73 30 6.46 30 0 C31.65 0 33.3 0 35 0 C35 14.19 35 28.38 35 43 C33.35 43 31.7 43 30 43 C30 36.73 30 30.46 30 24 C22.08 24 14.16 24 6 24 C6 30.27 6 36.54 6 43 C4.02 43 2.04 43 0 43 C0 28.81 0 14.62 0 0 Z " fill="#000000" transform="translate(356,142)"/>
<path d="M0 0 C2.80135778 1.6548105 4.73579043 3.38138325 6.375 6.25 C5.385 7.24 4.395 8.23 3.375 9.25 C0.51978396 8.12521792 -2.19799915 6.95809477 -4.9375 5.5625 C-9.31923968 4.00289774 -12.20354138 3.92895444 -16.625 5.25 C-20.987387 7.55465728 -23.69386073 9.67624909 -25.625 14.25 C-27.1118995 20.3704933 -26.84919604 24.66139352 -23.625 30.25 C-20.52978801 34.22955827 -17.68774428 36.1789115 -12.81640625 37.16796875 C-8.10175099 37.34445317 -3.3514852 35.83101638 0.13671875 32.63671875 C0.54535156 32.17910156 0.95398438 31.72148437 1.375 31.25 C2.695 31.91 4.015 32.57 5.375 33.25 C5.375 34.57 5.375 35.89 5.375 37.25 C3.73046875 38.69921875 3.73046875 38.69921875 1.5625 39.9375 C0.85480469 40.35386719 0.14710937 40.77023438 -0.58203125 41.19921875 C-6.45849036 44.22171875 -13.13703326 44.34706147 -19.39453125 42.37890625 C-26.62486473 39.0726818 -30.17450112 35.11799703 -32.9375 27.75 C-34.62765149 19.1455924 -33.24146445 12.21207473 -28.4375 4.9375 C-20.6879502 -2.46762537 -10.03098074 -4.66385082 0 0 Z " fill="#000000" transform="translate(69.625,142.75)"/>
<path d="M0 0 C1.98 0 3.96 0 6 0 C6 12.54 6 25.08 6 38 C13.92 38 21.84 38 30 38 C30 39.65 30 41.3 30 43 C20.1 43 10.2 43 0 43 C0 28.81 0 14.62 0 0 Z " fill="#000000" transform="translate(584,142)"/>
<path d="M0 0 C11.55 0 23.1 0 35 0 C35 1.65 35 3.3 35 5 C30.05 5 25.1 5 20 5 C20 17.54 20 30.08 20 43 C18.35 43 16.7 43 15 43 C15 30.46 15 17.92 15 5 C10.05 5 5.1 5 0 5 C0 3.35 0 1.7 0 0 Z " fill="#000000" transform="translate(625,142)"/>
<path d="M0 0 C1.98 0 3.96 0 6 0 C6 14.19 6 28.38 6 43 C4.02 43 2.04 43 0 43 C0 28.81 0 14.62 0 0 Z " fill="#000000" transform="translate(415,142)"/>
<path d="M0 0 C0.66 0 1.32 0 2 0 C3.17461555 3.10121711 4.33830456 6.20642241 5.5 9.3125 C5.83386719 10.19357422 6.16773438 11.07464844 6.51171875 11.98242188 C6.82753906 12.82998047 7.14335937 13.67753906 7.46875 14.55078125 C7.90864258 15.72120972 7.90864258 15.72120972 8.35742188 16.9152832 C9 19 9 19 9 22 C3.39 22 -2.22 22 -8 22 C-5.87460394 14.39331935 -3.14771471 7.24098798 0 0 Z " fill="#00C1F1" transform="translate(501,50)"/>
<path d="M0 0 C0.66 0 1.32 0 2 0 C3.33600613 3.47814628 4.66835642 6.95768139 6 10.4375 C6.3815625 11.43072266 6.763125 12.42394531 7.15625 13.44726562 C7.5171875 14.39150391 7.878125 15.33574219 8.25 16.30859375 C8.58515625 17.18314209 8.9203125 18.05769043 9.265625 18.95874023 C10 21 10 21 10 22 C4.06 22 -1.88 22 -8 22 C-5.36 14.74 -2.72 7.48 0 0 Z " fill="#00C3F3" transform="translate(160,50)"/>
<path d="M0 0 C2.80802348 2.80802348 3.73074553 6.21348527 5.0625 9.875 C5.33126953 10.59558594 5.60003906 11.31617188 5.87695312 12.05859375 C7.10181019 15.3757877 8.1391624 18.55664961 9 22 C3.39 22 -2.22 22 -8 22 C-6.875 15.25 -6.875 15.25 -5.37109375 11.9140625 C-5.05849609 11.21152344 -4.74589844 10.50898437 -4.42382812 9.78515625 C-4.09833984 9.07230469 -3.77285156 8.35945313 -3.4375 7.625 C-3.10814453 6.88894531 -2.77878906 6.15289062 -2.43945312 5.39453125 C-1.63252195 3.59355443 -0.8171174 1.79637819 0 0 Z " fill="#00C5F6" transform="translate(318,50)"/>
</svg>
